<mxfile host="Electron" agent="Mozilla/5.0 (Macintosh; Intel Mac OS X 10_15_7) AppleWebKit/537.36 (KHTML, like Gecko) draw.io/26.0.4 Chrome/128.0.6613.186 Electron/32.2.5 Safari/537.36" version="26.0.4">
  <diagram name="Pagina-1" id="ISGdxz5XPnKf9CI_PlUi">
    <mxGraphModel dx="1274" dy="1635" grid="1" gridSize="10" guides="1" tooltips="1" connect="1" arrows="1" fold="1" page="1" pageScale="1" pageWidth="1169" pageHeight="827" math="0" shadow="0">
      <root>
        <mxCell id="0" />
        <mxCell id="1" parent="0" />
        <mxCell id="VasatJ0gpRPYXc5Js9zP-44" value="" style="group" vertex="1" connectable="0" parent="1">
          <mxGeometry x="113" y="-251" width="1081" height="1331" as="geometry" />
        </mxCell>
        <mxCell id="VasatJ0gpRPYXc5Js9zP-12" value="" style="rounded=0;whiteSpace=wrap;html=1;strokeColor=none;fillColor=light-dark(#455525, #ededed);container=0;" vertex="1" parent="VasatJ0gpRPYXc5Js9zP-44">
          <mxGeometry width="1080" height="260" as="geometry" />
        </mxCell>
        <mxCell id="VasatJ0gpRPYXc5Js9zP-13" value="" style="rounded=0;whiteSpace=wrap;html=1;strokeColor=none;fillColor=light-dark(#333432, #ededed);container=0;" vertex="1" parent="VasatJ0gpRPYXc5Js9zP-44">
          <mxGeometry x="605" y="140" width="140" height="110" as="geometry" />
        </mxCell>
        <mxCell id="VasatJ0gpRPYXc5Js9zP-14" value="" style="rounded=0;whiteSpace=wrap;html=1;strokeColor=none;fillColor=light-dark(#949494, #ededed);container=0;" vertex="1" parent="VasatJ0gpRPYXc5Js9zP-44">
          <mxGeometry x="824" y="20" width="230" height="90" as="geometry" />
        </mxCell>
        <mxCell id="VasatJ0gpRPYXc5Js9zP-15" value="P3" style="text;html=1;align=center;verticalAlign=middle;whiteSpace=wrap;rounded=0;fontSize=75;fontColor=#FFFFFF;container=0;" vertex="1" parent="VasatJ0gpRPYXc5Js9zP-44">
          <mxGeometry x="815" y="40" width="160" height="50" as="geometry" />
        </mxCell>
        <mxCell id="VasatJ0gpRPYXc5Js9zP-18" value="" style="rounded=0;whiteSpace=wrap;html=1;strokeColor=none;fillColor=light-dark(#666666, #ededed);container=0;" vertex="1" parent="VasatJ0gpRPYXc5Js9zP-44">
          <mxGeometry x="824" y="110" width="36" height="140" as="geometry" />
        </mxCell>
        <mxCell id="VasatJ0gpRPYXc5Js9zP-20" value="Theater" style="rounded=1;whiteSpace=wrap;html=1;fillColor=#6a00ff;fontColor=#ffffff;strokeColor=#3700CC;fontSize=30;container=0;" vertex="1" parent="VasatJ0gpRPYXc5Js9zP-44">
          <mxGeometry x="615" y="150" width="120" height="90" as="geometry" />
        </mxCell>
        <mxCell id="VasatJ0gpRPYXc5Js9zP-1" value="" style="shape=image;verticalLabelPosition=bottom;labelBackgroundColor=default;verticalAlign=top;aspect=fixed;imageAspect=0;image=data:image/webp,UklGRuSOAABXRUJQVlA4INiOAADwgAOdASo4BDgEPm0ylkikIqUhIrFqYKANiWVu/EGrGZq+Xu/3vb/GSsIn/pcP+rnq59v/T+lnyL3ofJPxfqw/3vCXuDzZ+o/Nz/0PXn+svYt/Y7qa+dH9vv3T903/mftf51v+x+UT+tf6b//+uV7Wv7o+yP+6Xqvf+z96PiR/dP93/bO1Tv7F/rvPV9E/lP+R/dusI91+13yW4P/ffBn+c/jH9//mP21/w30X/x/+5/l/In6E/8PqF/l39W/035n/3T6MoNbhr37+4f9H/Iey39v/4f9H7Hfav/ye4N+sH+/9lvF8/E/8j2CP59/d//h/sveQ/3P/h/wvzR+L31v/6vci/Xr/x+vL7V/3c9ncheej4CCxoHF+09HwEFjQOL9p6PgILGgcX7Stsv09KQvySuWPjV5tXZG3CsfGrzauyNuFY+NXm1dkbcKx8avNq7I22CrpuhFII+AgsaBxftPR8BBY0Di/aej4CCxoHF+09HwEFjQOL7mffSEdXy/aej4CCxoHF+09HwEFjQOL9p6PgILGgV5PzZoRXCcp6MoI0LcGXSFTEoQ3CsfGrzauyNuFY+NXm1dkbcKdVpJtVlSS0M5MSUb8+9USA98g3H5bow2MEkw7mffSEdXy/aej4CCxoHF+09HwEFjQOL9gJ+gXg+3DI3hsy3esMb0OnwUe9YHDa650jJWdKMP307RXsQfQ/grss8kgtrOaW7OoVc1X2no+AgsaBxftPR8BBY0Di/aeGvtAdHxXB4m9HvQNxI0DguD5eNfwTLZfUw3SfmiI92s2zkaAHIsIfMEgoqyDQCMgX8vzXulnM4p/UhzW/zauyNuFY+NXm1dkbcKx8avNn61mtuddydiIy1zD2nhr8QoBEP7qzzRtZzS3Z1Crmq+09HwEFjQOL9p6PgILGgcX7Tw1oo4Mf1l1mVnoLGgcFwfG1ebVfUz8Lw5Qq5qvtPR8BBY0Di/aej4CCxoHF+08NZRctmdJkL5/IgG8DE7o97O7CuwdD7AUawUovOiSysqvJ3dcVstnFA5WCxoHF+09HwEFjQOL9p6PgILGLcyOQluGExww5SYk2Ok30vWFkJRisIvVi1YWF187N1fSBVldRKroXtKXNLRsRAJ6wyXv8Y6QKjj0yLNi6WF6mFmjjlC3KqxZ7I24Vj41ebV2RtwrHxq82rsiyiyBZFimBsa5QNzLaAArhN8W7qoKPGkZ/ltgJMx1weiXiy2wxt+3sT6RU1oLX+9LA1BoNIjq+X7T0fAQWNA4v2no+AgsaBxfsQRdxBaHVTGKvkMhJaxg+JDe75ho+AgsZ7R1Q3nsiloiCQR8BBY0Di/aej4CCxoHF+09HvRHDxtwrIWx7fFzBYnP4R16xnJiSjfECQX0+y1+HBethvPjV5tXZG3CsfGrzauyNuFY+NV4MzhjQOLUoUueuW/W2AGAQ/XnxG5h5xyhblVYs9kbcKx8avNq7I24Vj41ebV2RZYwD2no94lRKyNLRJRvrxcnRaZCf4vFDiox4cicuxrTqK3WdMwW42tUgTLyqsWeyNuFY+NXm1dkbcKx8avNq7IssYB7T0fBd0NWltlkiVV6xFWszvy23xsMDybyvrhtHrJtSwbLYWPZnHgNJuw3nxq82rsjbgmNZmw+v4sVj41ebV2RtwZd8vBgILGgcX7Tzt4JuWpMy0hRwD7m3G0fKhq/rIs2s0OOsiB/v36M11tstEQSCPgILGgcX3NNhvO01dkbcKx8au7HBcPAko4KA395cu1lYVlSS0MQiXgZyCt3WDK77ZZZec1qnhj7Mmn62EoFQFIc1v82rsjbhWPEId3xebV2RtwrHxq+VDapl8fZSpVyHQD75XEVTRU5J3GEz+s8AE4QCFwkLfCLeJopK9jiYzyGJVUw2c9lAiLn+eMfdNM5kuhdoLsJ1oXPV3hWPjV5tV9LeRu8Kx8avNq7I24Vj4TR4NhZlmOWXIkMLvv41biPnkcqrm0/BPPqpDaFZJmOMi187BYWaBpcn39G78flTFc3xrCWe/hyptdIVMShDcKx8avNq6c4UjsUv2no+AgsaBxftO+1v3ZkTC2xeaOBioSn0L44DkIEp+z7J7xUiDtnRvrqHyvfAo8dMHTr48h8gN7I24Vj41eBLOmQsaBxftPR8BBY0DjAW2msaBziRtqy6bV9kk7x2dQq5qvtPR8BBY0C9CQSX2no+AgsaBxftPR8BBY0Di/aejvdZaVUuwh9HY9+/oHQWNA4v2CXCRvbOQXzDXAK831CgjQZ1L+lPHGrGOwwswMKlCNv6vKP6VylisDFeb+AqWN2wxltgxYGDs25PO5ffz8MtWyq9sy6M+NbtqiNM6q2pCaI1X773omqSWhnJiSjgoDf3ly7WVhWVJLQzkxB8s9lRNzpesGK/6BAmEAsfrh+SQN67WVJLQzkxJRwUBv7y5k7i1jstuAh8tlCUp6CBbyphCjE5ZcoG4EIhyocPYSfums9Basj5AVVfqCqi2IB481nBH5DfiGvKSDRx4qN17UaFQmmNHAkGLQ1OYgPvwm9STP5zdyCeUV9QSJFTZFSpLpMNjVLPzL+2a64rxmz36P/XKzhchjBuAvDRkbeEeO0wLcLeHRXKjTIG1IxNXZG3CsfGrzMFpKcDT+Fl2rRExryed9Ih/dWedz8EzIBHDsF+8uXaysKypJaGcmJKOCgN/eXLtZTq/5R3piuGai3ut1sYdNM+BJRwUBv7ynv8EtqypJaGcwnsEWcoTqL9uJJ3z8PsYHV2bNXf2wClKdFTT/f2wCiOorWVSHNiecgI/d4spkdnWkEFFoK3fGNLspQEfu8WJPhdhZ7nbxZXDF3bsbhgWQeLEnwtbvjZ6T6C5Qbt9QypYQCdJOsfEtd1AtdK2cHK/PGD/mGJRvbGT+Ha7FOFQZCPUCOc28/lYhXl485b8q5pV+ohbXedDD0lrzkFo3FlDo+Dy7UFqMyUUhpGK9/BfkXhHGeM7u3y3AYxbeEtVZW2lKj8NHJ80Fmk/DYaGRWA1NxsL/Cbxn7Msywyzo6rlZFfC8OdZJMTWx1x6JXaSP3M1NGYbFjAIOmFjagO9UtpawFY3pBp7hFJBfDrovKK5cpyTz+7iB5rDCgfW7WQpmAaw+Cu6DD9nArSgAK4NR8sesbV5tXZG3CsfGrzauyNuFY+NXgQAvc3y8oiJWakTRHHnJASao09TA5RFKH9zsN07X1/8G94mrz3sO9WHV8xbqNu7eQ0/hM0id/8Dlx1L/KQuOTTsaiI+8oJ91XcG1mXrtKvPHnRBJCdZtubbP2Mxm6Wb2xBWp+SQEr5bx42ixi5ACCxoHF+09HwEFjQOL9p6PgIJFYfnS/2UDDWHWH0S4zOZX3ugiCXi7ctXT1AWy1Pv0jPxxCL47TuZ8YS0v3oY49ugHpHaeu1uCnlum2jfwEBbfrqyML/XQJ/rOwMTkL3HRwF5PrfFDdd6xWPheMyauyNuFY+NXm1dkbcKx8avNmwYhfo/KljtP1h3iEDWt6E2w5+xgfHbZ8c5KtvRx4ttxoGaTGcPK1pUnHQE4cEyskaa9rOtg5tsh1Jpyr4ntsBYNZW/kgbVceWSqyV4QOgUidi1tftLdtcsfGrzauyNuFY+NXm1dkbcFXcvVj50ytwIO0IVzBpfSXBFZXBXsYboZzY4WgWRnqlTgzUr/zIY0yFki1gtz96A8XCyXDJ2Sou0n+Pp/o7GmUFx2U5hwekxFoT3FyanCzDcex3/GgpOGqswZ5hofb0IX7ShybYY3Z1PyDQmKzmGCTv3Jb5cDg/Z/h9kz2JYNA6yBZIIdTGobtXQlqcwSd+5LfLgcH7P8PsmexLBoHWQLJBDqY1Ddq6EtTmCTv3Jb5cDtnIqcwSd+5LfLTOjOYsHNnAytc+1IQ6DJGxsFm/YYmTD51lCRQCYdj5DesUsNaDzmAHNQgpn5WYIizF5Fnz5k+ejCskaMO88BxvJsD7K6bFnOu4QZh/Uj1n0oofYTs35rFrZ+z8ITCApZZXdYx3GrXo0n07gj3TA4uhq4AMb1STu2Y7Vc+3MiW5dBwydWDAPMFax6hvVY395cu1lYVlSS0M5MSUcFAb+8uXaypJQCtEP08ovVr+iU7IkvhcrYjn1UxHczrtQ3Nb+0p1lN9z/qg+RV3gFoNIbAxNbwKtIKtv21I0Fh4lyBpfVWX5YDG8yfdSMhgzI3wirQ1rdHK1nmJadMvLdNulhWE3rAV+6RGFG3UwK98v/lUuJiwYorNGP+ZsQjEc+iyTnJR8ye/x8nWzV7P7UIeTP7fQOLatztCoIEFvojCJTxT0VDHbAu4JyGCEfy64l9VizDGixnzCKVCktj3l3fsAJtanraQ59olJRD5zx9x2K+hTrF15wEiBs67xn+Lel5+RlPQhE2Iq8zREXF3equ62eb34Qv/bN938Fhu3zFvdDbCypTwRKxaREERhSiTQ1PXd7hwZLqJW2jJnzwxijhDzE5TGH/UidztcA8JY46cMaFaeIfy2jWonBdFVaOVJdXy1+CmJfPU0Nq14t9pjaunKggc5k9fr3Q76IzBvsl9cLDB4/+syPLwKoyJooiP89LP5gLYGpFRODCp7MDn9RAB0yW2IU8kU1LPXrwYB817PF7hZykiCYOC03zi9vEgLC5LV2NCCtNGyAd35tICM/ekRcAx21xaDDIGVqZSd6U6pWw5scmWLplHAw70JQgjcpO/opzfVk8t1D+MeFmS2rTbHiJvAA7mhEMUm5fVGEbddNmb5xK0hCdJoUNqp4zV5nDSJPka2WA4q7BH5m12Nfty0+KAfKwQSBBkIlxtMqU1PJhaaIx8GK++MV8MaBV3o5dMxX+6PwlJzjmYSH1rh10XoGlZA/DbbNa8/9ZSL5AfW1OziNYHQaOD1Th18TY6wyaF+LogGrODATPagFZCNgIlSutow+/1/ZjLEr54Z0oH2bw57oHMvXFUj4f7wTOSN0jlqgO/meHoY0n6EkMgjk+tRJzavNn6hP7hJtur34N+MSUzRdCZgmY+qH2/ME3KmNA4A3sfAi0hCbneo0GlTDnI1keVhbMUuSeye5cLZUkKLzV+8AC7HEsyaQqo9MbzW779EBngLERGo4G1pQtx05V1qtoG+48DHAre9oEGlp0fooJJbyZz2xaq/BoB/j84fCYcUfzKF0A7M4LjhWHJ80hGUcNXtbkCVZeyudgz/5reS2c4UmaJRKFITG2fwdEENxQx+nqOY7fqouPll5TprkOKX6/DCDat9Yc89oZyYkCOKA395cu1lYVlSS0MT4XralQile/jLR9vSNgkpu0daRrJJhq+DAhjJZE3WnKuxcDQLAek7tmaGr+Op+vycilmxlb6klE1kcHnxw8RKZeszjfz6MbTIbeEH6dSUrogEVbdOEAagtqlHphPxb4gYYSvZYswkrxKBmD765ekKWoBZytFH5WDE+kTgwdTKfE/AxJPW37jRUA8MubUgWykbffezArtCTcNM9WuTGrgTmnim1ebWir9efEbpSXq0t+vPiN0pL1XJOW3m9oztapojTKMhsHhZH9cMrAMVMY3zT3HawRnkW3z/At0PBuiiCp4zrPPsh2K8t4mcTOk4+VeMDpg9Y7zSty9t50cipwzK6AmT1Lnc37m30JYaseWd6RS7aoYWPj5dRu0tzNr5/WToyd8ikn61ZsyqXAIWpr7D84a/KHw9CH4BJai8e9MSuEDggSE0ed/1+0fgegBflfihKM046ucVRW3v5gO82PVnvGrzauyNuFY+NXm1dkULMIDL5+5JTd5c4Wc0Gc1F+VmIsT8L7ETs5bEKapGi3HPRSwW+1fd7W+zUu/YIS6s5xe6Yme9eqcVPxvZBpMIVB5Zf2YdQ8vnBEre1an+G2bmH5ZKK1Dvt185BWbEvpgWXSeMRlpNrdGiqFg6/jhcw37FxCjoPsrmNOpDwsp39YOCXsPaLPr+P3FHTZLk05XnwB2nMbNIoa/OcaS071jX5/Y/6y9ieZr7IPnCiBjsaMvjV5tXZG3CsfGrzarO+Czt3oq7d5RpOUuuuOgKLeWntu1LfKP/SC7aY9SLDBmEh1MzCOvXiIuX+4/VnxG/HlicBJo7fa0h1EAjSWGaoTykTC9uUKyt4BJMJRJbfoJMN43wDA0hVomZDXKvlChaeSVK6A2vGDHSD0SP5cHrwMu96N+4bHx8P2TYpI1Y0gbECSLbTV2RtwrHxq82rsikFmsDGUqsxS/i2wHinaO8egrcCS+p6CG+jgD/+8KK3d4NkY6Ry3ZzaOSdfZ8aZD/n1Xi0rSalpoHFmnvyIqq5lgD/hYhGuDK4EghzPOg1WXXQk8UaDnHUxl4ftGo+ddoEdO2pHzk9qbnB4iBfKh0/2XZRt5JAp/pH5kxphRAqDCovSs57NWLcXzB4fzy/trs2rsjbhWPjV5tXYn5Zh14OYo/S+dfm47gV/3Hj77l7GNW9KRjqQMjNScwL2urn9jY6I0DVdQbWkFWjSz0Iqp61OZlmxLEf6YuCCM5vvfzWxS6vSCa7zgJaR3VXjUpZtwElakzH54srDEHOejeIg2/+GiypTMpF6CEmPzVVa288ruFsbcKx8avNq7I24Vhav3m6noe6BkHXU18NOyL8VcxOlpLGCWVtlrx/Jpcoh+MZxYw290maMQd+MgO0JHTPNXZQEIEWnb8Ui+4AlUpYnvM7MqGjCO/NgWi6NAH9vroBZR5fju7KR0X6RnRGrJKuR5GJm3+7zxI06BqD4/4u8gZ1YYQsaBxftPR8BBY0Dfy7eO10BB3+BwcJKQ+ZgrrbffwYXfrgGXeyYcgjYkP7vKEYiicDqfUEiyp1aUI1Rl6GD8G3gBtrF+TEkbC1/Az0ZsuAMYLG7pIZjGLAq5v5vipz8HKq1NMyyxGe5cBCVgVCbUCyWV3vYGbSQzLiF5xO7cKx8avNq7I24Vju4g9ay2NcmnGE0Qvws1btV+phLuqobnuD9k8KizvblYvHTtCS1pPETO89bOJeQ6Nz8Mg3XkmxH2pnZ8W9+DOoAEi+rP8UtRzutRC5HGgeElcpMw9yCHjpJZXrypA62v46hPuA9ITiY2oC53iBaIw358Co41uYcKX909lq5NMlqR+xaODN2Qv/KCSsY+a084VJJckYC0h8F4EJlA2qMdV2bGD41vdmkoktJ398jvjLWofqgtrxJlfaR0FjQOL9p6PgILGOETGws5Ng0lRhtpJyc+97RwayChSSyvcsqasb0ypEoyB5XKmNZs4U8G4DGsr90aZpaAE7CQgswHY1cHuOFr1m369deVdyM5vefTaJGsizVJdEmgku8FR3WBx/jyBaLA4W1dts07OeeMv5/ieOJkXvVGWCZyt6If3/uLm5eM9z7bZk/hLoHQWNA4v2no+AglnUwbN5+zEfVZV/79tavAbczqyrbTcPBjlDmySIzDCmjgdYajKyapcv0d25PlndXx+VdQgzVTz2LR03IvwX2ftS+RFi1ShTCe2S6K7NG37cZ5VAsgpMOxo/LO2UnsIXvXocXG3Kq/OKU0z4l0AnXlhkOafLxXoElaiMhWCxoHF+09HwEFgiAHfYGgSrwe0mmrweRAdl4ToXfIY8wiCaGPszrFCdbwVAF2cHC42tMRLYzbxnCh2Ba+A3NvwnexcP8YH6s7iXjkDRXkecrReGH+UDJ5QHNC9Sn06tHclTAdQhLXVR1DSKAH+lFSX2e5/6V8wxT54ZoIlKdW4Vj41ebV2RtwrDrHsGc2By3n+Z3WndPGNIBAHF+vdUbyvlqBkX2BdmLM09pVCsg3+0birniALSCQmLXpjPjbY7zXYkJLxG7g3dzGCcERt4K78mYII/+1eYjkXgzyvzfpQrikI0MhpRJr35dFXCamlzB1whfQ698tneyIKyG6Qhm1dkbcKx8avNqvkel3aMCKqIt2Gi326hmkXIT+9fdtLHn5Op/NRgkD+AV5n/l7YuFNxy08l0tX6w0woYoJcjL0ETpP+sYPVD78qDTT5Nrn+4lnwcdoMduUuYMyoEqZyGwP2AMR6C2J2nd0Lp/MnahmDVHsyPN5a5+2dKLqwxEQC4XrxyNxq82rsjbhWPjVd2ReMEFk4zuo0Mk3LT7BdV10wabN9hy8zsliDnAdfJ3MA9Z4BuTRp8XecDdcTDzb++QgMpCTSD7g7MMCAevDCgJdZRKMhki0CDgywkRct4rCYvcd79nrBLU6NlOYAO8L1BQUA7G8Mb8YfUsXSh4u9e9CZVtwrHxq82rsjbgyr4oa1Orl46RDLMb2Kb2hG3YJUjkHJHxS0Nyi1ZcJVsySWemJiX5dYvkylw2OZkzDi+FGVWwLPEWxYc0ol5S74kreE3ZvMGyeY1Gpm6fI4V87XuIArF/2AGamFWwyg373dtFCsfGrzauyNuFYdpb/Nb2kYmAe1k3tFETjgpnmvfOheGvBG063QduqxtdQHP+KCNutQ/q/7q8BlY0QhkLGMZ3BqDe2UTbgi2JxEYNWd3hWPjV5tXSBvlnAAN/XNG2ySpYzGi2Bxmp6+0Y8Ec5tVmaOFhKaTQ29VVwLrjYf4PTyetJEOYi9/JCMNZTUbyEPHh4nKwcoaYehrSxM/A5cQsQR9QM1ebV2RtwrDq0Ha5BAQWNgsMKZCJklDVsj5tkJrjhXsDatXuzEZMO4WLVoafQn45st4SLjXyUGre+3F5tVmFY22hsqqogDIuDNVoz+qUg9ok/YAWKZC2Chq03NBI8V/1Z8P6O1roL/ZGZILZ9Edod5M2ScdNXZG3CsfGrzauj0KDctuYyK7C4jij8wnO6EdTYo+kdrrXj4EfhWNXX6s27UKBHZh4BNG1ebOaYmSoMC2SOV3hlPzopnni9o9akBLdqpXOQhAQPEPKVz0aAf8TJWEPUm6uBvpsG7m2qbzk7TGupzWVgElE0KC38oIpmn41ebV2RtwrHfgcETD6wUFfFuQTBJ5LLHxq87KYt9K/IKNWLre4zOO0iPCIXMsFdiaJO5mlnMtaEEgVkXifvKhNGdfbULIZ2yhZxjsFUCcMaBxftPR8BBYz5lTRPf4vw3sjbhTr4n96ff4qT59nOpQD8GK3/jKltWId5+Vxh3uVnzPAoRYKYv1PZrXF2VGbfe21H5jrQgDi1yx8avNq7I24VCEHeN1fL9p6Ppr0Wtk5CEQIyHeq3Frq/bqJFBiehUEujT+8TcKYOP0ACB2jgWiMoHRZl3p55vfAUNdOMKH32AFiJC9BY0Di/aej4CCazoYH8sAgsZ61mrtpiswadpExl9SVjBfgwRxmOsVQbPUlntj48kas58GkXLHxv8WElAuzy+l2L5cvjV5tXZG3CsfGXSA0mJKN7/AWNF6kloZyYko36DgKUkYhVhQZqxNdXK/Oh4u0OJ/u9nIO5QEUv2no+Ao0vDZPM7wrHxq82rsjbkaBIY75VsEs/6xzAcrwAY9mZJ7Twy8ir0H8A+iGNstVV2RtwrHxq82r7WgcX7T0fAQWNA4v2no+AgsaBxZuaT3wUjbkWNA4v2no+AgsaBxftPR8BBY0Di/aej4CCxoHF+09HwEFjQOL9p6PgILGgcX7T0fAQWNA4v2no+AgsaBxftPR8BBY0Di/aej4CCxoHF+09HuwAAD+8Zz/4FZEabIl80IAAAAAfEyWPJY5wLlmgjI/q7UUv3n0lKLfzaWjvp0AAAAAAAoEZiZAQHibAAAAAAEhlYgAAAAXrvF4lFPG1Z8640NgOCtLFn84hQbTATQoGFddpSYCdUOKwe4Hh1dWIxz7WgAAAysL2w1JJK+UDg/YEzZOWcLTT41XZDignbZF4HAGNgESL3rSMct+Ma3r4jR4RCXFXgzTNRzEvnw8mEGxRKtaeOLWcFlBB9rQAAAOUadzvRj2+fCj39vZAXt3BP680Sp2wEV2bcru5W6bSLXjqKoE4PJcYkMACYV1GnlGRdvlJPQEoKY9KKeHtt2RfsYMqeJwAOE3bdwJgRYIO8o/06qigcjxtamwymEuw+ioJYszD6JW3jT3MzPw+AMfa0mnQ3MPisNfRagHsxX+EwUIwr3anBlkCyo/Wuj5qBDZiNApV4xlO9baNJoboFNqvPmYyCWek11nqDTyqCyMr9OavQxF+oUWLfraQlNWnNF4DJBGSmruAxiAfcXPMuLjNL3J3Nzi9dVz9f8KYeWIX/78sVar8sSvq7yulxLRJj7pPI0KTkjdUPh27NrIxQ64/tYhOXHqYSioFiqIPN36HCLXL3wfbug9l1NP3dLOIAcaRc3Ctak5NJkFWdQWblEwNAMMz+4aCW6DnGsQtUhAmiLqhpDpjgCNLr9KV4/Kon+oszgo/3aK9IcGZBsxaidS7QPswuAsqdhfp8wc7ryMV/uGubWmGh1Ue87M74Rav6amK7JYlimlNsAAAFekdLVh6VKmaippiXUY/jl5E0GQ63xSWMTtN8REPsi7kJJMFRzrlaIc7pm8t3b0q0Y6Amxk7wsimhYKvhAWDCZZcGGEP5lC44etRfubPDpPmhxfFk2CZyN+MMeHZ6SCvEu6xTDk7D7/NUulrV5S7//VfEHPHtATYJ2vglRlGww82egX/zUpc+7nAQ/RxD4Tx5Ct19qYQiL2LGoxT9uRBeiXf7GAnbBPOgqFk5gHdqVKZpJyC35dT5n1s7mMQHghO7cHZsNeIib8ufvwJ2c54Bu2UHphelk4B04qo4bPTpOKK1Lb1Z0fqic4VbpxFWLnmgaa6eg1wbu1IzrtcPLpdb1yqjj72YtjIWEr777lqadho/2SzG6e8QMDKNiXfoZGNQVf+jgxIEIEEhZnT08XilvlqSviF29hfe3mP/yXwXyRm/R79oIb0ZiQxIi4sj/rFrwCUNdFPGL13iH4fFDs9783+g2tMk9dsrnjW4D9Wxa7/AHIHG1kgs9L5hianABw6/otaca70MdKcmDr6U04K1MUSMHX1Zyo/dw1AIvU22ScEVHAL5tzjNXARXx9m77tgAABKscEW74ekSw+q2Jh1rJWiQXFgkEAHgZG6x+w3XC0Oaa3GaPAHBCUI0cWYw8x/Uw5H8ISqvYRDgBsKFclzGZ6/scBGscCGecu3GbXheSgkYnbkIU/wbM2nLib2m7bRi87sAAAAzyAotuzLNN1rS2/b35FYTyAfsfVKSemJbOMoQ4MXvqWDKgAiwO3ZYEeAAABAtDbl/ipEtD5bzJP/8OCsQEdpY0p4djUw8D9gMEe/o6/j/sJ5niPuhLPblzbp089bWhBfo1cheimcnfrTEYYr3C3PsUknXLBu0NAnwpIidiE8cD0EaDvpFNlQlgSV3JT6AtC9taAAAAneS2xT36BTSU68RWsSbyDhj2Yy52iYjAaP1b/omI3rxj/ddqSC3srx1+XusWVfN5Ih9lUUmOcNEFyoMV/eoEwE5ajGek4Cwy2RWtTbiJN2pmFJA8J6Sz6ze/Cm4hMyxqtmotGkJzm/+GXYPH5i2Pn/80IJIRoSKV9u34OJqu6y4HbK3MuZSm78hvhTQwRAXi4mEP0e8zyEIqT9i1S+8wkrp0WIImrTOiG74on2U0AepN6Mc38d/8CVFPSACrQlDcC/emBMlePR/d8CdNZjwCfFu7t6hy4ieHb48l01OXUdC051izkYJvHHGAARwfjai0YTpZ7npO+Vet5RcrdZC//1+hGPq1QUrOkte6GE2uJCBLkN9juNJKFzd4PL6v/TtJkfY6Wzp+dj+V7zNK30mb4TIcxT7VwBcr4d7iS6V9SwvIhWdWDVhe5S17IwkvWdunNLQ+WD4ofqsPHUSCz/3FlxtEnzVv1pCD/wEv+rg/RZp/TokJL4XeN2L/T6xazmnJPCJjFVScC71J3FYFFJFJKFtXPhU3sTLFu2lHwpgW0db9zg44QoIpfsW6Hx3c2gg0/3cEnzajTCcv43AKnY8fAmj0OkOvXDsqZBRt0Kdtr/5alnovSvnuh/6C25rxNb5gWgDCOrPJ5/BsmUY1v/XrYYiBc45+Uh11BImJ8kATiprJQyp67sUGb/JUrYBI8ffQcnQMbJTXSOaQoHUyUcI8zaPlegFsX1cULuwZ4oo2YjZUrW8d63Owm4qDVUp+P9J6US+xogmc4gANs6KjWF+l6VytNqX8kPt8DIahIDG0nhV+U7hM3blMUeKxaULDkxd68C7MoM5x5AkLSIvB9lHEAAAED1ablfZVCkHCPPeHgQZXAxS5H86hw9cqNt+aJigmUwC3q5oeqgs+N51YZQiEol+ugeIVFkNks4EYSh+hHAjN0rNPCCgLNd689Ocq+0C6dWOy8z6jlPjRRH5oeTwVHByxPq13cYLOsx6eCrY+gvT89SqWfmISvGIQGKnZoxxNLFuNeq50UugfZ3srAwXmlj47upC+M1R20n+Jww6Du3wHd4Z4v5YjY17oHA6acENAzgFzybUjKugu89C6/IOAoys3NYivUd+y19TrBQeR5+mKTqHm/B/KE6s3niud+zw7jHutt7Yz0MpX7nELSpEoQokPC/mSBu2qnHaBZKuS/L0GGhrNZPoUqGLnIFkewr+EnOWj+HHNfV6XqVO8QarECsSUyJzHHqH5SARSjWiTDO8FNyY8doPabIed0McJOj7DHKaI0UbQDVUpxyG1oL4gwegSrgqTimgYb64Ctf6gUypc55OYeAABTccoSr2eXxzQE3fYl4AAATfipfrdFLoRVrtWyV4DjPNCAKAM3bV7zSABMFTFP456X+HL2gAAAAEBeLPUnt8oO79Re6bkhG47UBjphrrgnaL0iGUxCWXNG6vY5xOCKCFUbmkz1ZSxU9UNSb1/kiSMyfybmgAAAASeK0ggdc462RCw0gzL0qwGkqO/Wz8K7INQAdsF5G4gAAABrB7cD2s00NE77ywz4Y9ImfLfoRFKejl9aliuDE18wY4KJSkzeBp1Lc5H3w7fDT4qc33m58kWPj01AhogQwgaIuOkFmlE5EaReiIDsPpGoTFioSA6nXWSJWWvkRcv+uPqUYdirAe6XgMgsQjUWwVielyq+D/jXtGz4YwHD/vSIrlVZM0AAQPnrwka0oZtBGflf16iyA+pa9sab0YNHu2AAAAAAAGR1bfynL1YjPYQ8p2TP+lOCj8HUHz84/0AcWFaIe8fy05uCzQUNbYVYDHBbe8jcUs57YOHRTOGMMzhVC+6vAmYf21Fa/Z/vFypFoWpALzvKdyRMNi3i15185RqLwnx3rDIJSkPUm0l3HQHDExw0tbu8NSW/XHYUyfB+QkMGSWbEXf9fS/YOq4gHKSQGgZwhvPDnKqgUkXJGKRazKTeAAAAgHOdUAizCsbqtsiWS+AiBnOfEiOKoa2Z1IgcnyVB52wHxh6REnSrl5CAwJNxRPICSxvf61qVNGCtdt0kzbLI2MQMhQVZwaSyd9oZvxVUs/RKtuzpui9N7AAmdPiYBMpakjJelN2whvQEPkXBZP1ajKEO8CJqF4oP0il58gI+pDW2YdACc5VGXyFD3S50wKB0OrewL+ZU16pgXfTzaklv2zXIoab0DPs47fqAU1Is6hnbHQgz9EnBfydySt1DIY53FjgpoSstxaXaG09bnGrCcnSTN4Y+BwGZyU0iKZzIhxOun5EEnPrDr2q00m9hRtk+0Y4AI0+mYVxwyvAhi+e4SU1rc23Rj5+kX5lOpHs8uKIj+pq0K1oCV+Iwh9NuLDd/t80iSKra05El43ZDpM/mGndgB5ezzAAABzyZF+CwDARDnOguYZmkifM+rfGl+6dycj3ufjViLQvNr4B9JsSi1V9PDsF8B+jqIMBYpXR3aVP4+o1lt9oNeXcowIq7LZDv+N7dvjotujxffP15lv9t/PvLhYfr69i8GZ/AsUQxlsJPqWChcFvxAoIYOxAcj+tBqUju2E6oPDFU8cHPo6TEkwBdDIUKeNftH41VYx8uMHUY5IWw14ZvqzCQvMDubG1GXpRgfPeARJsionCxag5O0ROgNB+E3PnPdgrBaLAcDXLXvZFpx7UZjuWnOT17Hy/PYf62LFmIYF7mWdXbP3seXjWcuwd5niDCPfYyjGDBj3gPN+AAD5e2c7EiV8X36gqxdt5k4uS7BKeolfvvZeTbSiDL7QzT6yJfS6GOy8t8mzTNXpkTwwu/jUswj7ee/Ya/+Rgkr5LmhwlUQYUSDYu+A9Lm3ghwHcckVba58lIC5MEtQJ4YJ2wuf/wpfbWBG/CTPvf9GQmpLg8Vy4PvfIDIeREFP5xZbk8f9N+Y50rVpqwpDVnEDxNBsNE371qLCCe3fM7/nAoDSCbKqYM9Mt3W3zRTPmd9ijPI5Mnxk8Hi47rM5UIfyYQ6R7DxCdmI/+naEU55ZBzIvuZGrHzIq28XyQ8ynSx+HZnZvLhdlnp/idcldxYAyjUAAEnNDU/8l6urVFFrwvd1/6+VxjyuVDwoLpGhJSleAAFQV4CJD8NQDZ1BGZ7Ci98D2kkvFQB0qj3VZZerrV67n42lt3KPoS2NXO2IoH+BiQiIT+R7nJjSOPC6BHlukxr4V8VrCJa2D4Xg7KXdAGgypWRDDLgDLNt7FQDZtsBZZoMSQGGL0qEubs46UrOlDV9rQCdjAAAAAAALjcPOEeim3ddkUaXePuUhm93xuBenK56I3pnhnQp3VhW6OGKbAZ9Y/Tr/W9SrhGNLHdsBhGoAAAC5hXb9/qCncxI9FZbsPUcdb9martb5vni/wQ8rSgmZ3FLOK5Y7PWfMyVStkxCvuuppRrrpnl7FlQusgPw1pqqbLiNFYz6XJ33udps35nybVd/Liyb5TKlffina3i/nZHIV84UDSdXEJjT1d8FehRlGvj2PWVyJZJvhmcqczcKZ5U1R/Tnt99oIMPSC75l6kg6KYEHf85/SKzneOPZn4csk3m9+tNnPDmRrThRWQOfq9ijflxvdTw/w1OcrCEiq1POwmDEOwBV3XRRK0BCcAb4KctAJwG9AXCg8ySM78kmru1inKhNL7TdnlEIGdzWFMme1FH9UkvTn2wwxywiiGwO6ee9x3uj/x+efJ7VrW9UU9ikzWNK/K7FCSP0Hd8/lp5qvVlXvRPLRAo3kF0EHvtVBocfMX+yu3wTEOLdR1Hspwqecb4dPiiVxcDPt+61/iVNfln750WoTNkbRqORjWUxk9iutgdYbhm7md/x+cF4xFWrjBOO+54tiaYjeGXDgpC0/vydzKjLmNCUr00b5baH6/8Iolj0/4wWquqW5v+19i3E30Ua8JAbJmy4KTwOkbb4wb9JyC8QIeM1K49NnQWPuGM3CabI7/y9+s3kR1kcpnmEz0rSIRZVWc90tq0WANZQ6z7Wqj0OCI9h4k1GK7psRhq9uWnusFWkFDl9IfLxs3/aQcm8kU+rcpbB0nGnb5e+eq9EMBRVCF+gV1JTHLd9U5n9K+sUrPdf9Jjv5l97lzohPN6wk52n56eJqb6GzB9Jrx/V7bdftAgc1OJ9z8B6CltiM5lvq5mqYHjlHEXKNx4Qy3swHRe6yvvoHPSfKV4qJDSbecZr6Ujdkqi2EjVupaXSXotFx6coGbqlq9NVE+bA+N2v4F1Yc/tNKHYfF0P98GYnxltVUM92c71T88+8qU9CZ0oloBdYb/F9yB2wTYI4I4aYwQiJ/uTJQJ3VGPtOz4JQY2e66zdZPCxWjZ74401FN4cR9gJErYrWUQ3OsQbnjoxQ4EOcXA4dJPuyOUIsCwWHaPtVAboFG8hOH9t1uMrUvdTIS3CFgJhLTaprdflQq/kV85lsqAlUy6wecB5Xd5TNB/Ys+Zs575+h0X/ql6LPOX53llOFFqo+fYi5ScTtRv+1aAl1LldHKTTv2m6YsWJYpihzVqcqo8/dA9zYAL4vlZVwWMJD5tdo88dtIfWrwtYFqD7GXExH4XEqRp4SMtMfr/neK4ebRG3s8q1cm+tEEfxirpmW1XmQ9ZyteM23yPWGZunM8xkQO0Vw7ntpLurDIsLXWlE9ryycXn/jZiB19+RvMDr2jCQCN3nuhcP01b/geGBxN3eUQCkXOy8rFVZatqVoUe1dbt280I4XIEn32PY6vZmc6HF2nFAjEXXGiKH+u0ednYcnL8ueYt2F66VRzjxo9sQoXF4dW4k3SM+hHRi1HvZeu4AjC0eFef6wkA/0OcnuzuwKlgoFpN0e4Dgb5j2LOFMd9lGllEsVg4UV9wiR7Wx+JS7BcaYWHOqqN9AI5LgUPTIYTXoc/2kFiLtRL+IOlhxhvurkzTqrHJM7/tYh14+b6idMgDU88KepGf6NzTeXN+eylngrtwmvz4eTgcc0GnDHOffswIJg4qwfJU72b4+lMiiZCjMtUK3kTFjfPz1bRxkm6bU3i2lLd5C3RpGVpuRTbFyMRCXYL3GMVFUV4m6ZE5XSyYA3yT+25cauZUUg+/Y0/FVWib6WyT/3g71xuhLqDLciLL8vOrKUvOHV4DBe0uawItBCvfJMVxoMSIhDQnCWFbrqVmvv3GE/4JJPZaYkapAuTle+ds8SumTbKLzNAaJwYOz4W1draY2nEfs2diMvbHWiGO8DehN/wdIzoHVW5Sda+UqK8gIIqTlYmdZtup4cpRfcAfjbK4tmwdTRuTPR6Tm2OKyP8o3KzdfbNZIzhA+GKJXS4wGPGc1u63ZF7ev9mIqm6XzbtgB0NuSihnEUuk9fsyWcly5hhle7Db9H+Y9JLcOS/SPRwDXfBnxOvuNz8mMj/PSzF0vKoK2Y1oHk9419nTwrcbV8fQwB+s8TzLfXmD23q34bLGnHnMumF60yG1cEqRHvDPYA+H0naO9X67wXhtB4j62739qJaX+JNx8brTSwE4cDDJgsUSrErhs4j24nkLOioJaHF5aLu0DG6GMLEywoW54nkQ8+gY/iFeDuCuy/Gx7BmWGYI+R/HH/bxtHXR4ZPFhedKHhXj4k1c314e4bZ8e0s2ds+egZrs9Tigfb+ehO3/RRygmGFllJbug/L2dqul9ISJqdIQC1uh7p92dzDZSaMKcO2exAhMWsqHBqwdkyqGwACPQKtDHx4TACfw5g8Giqlas/X971mcYeiTLdOSJBU6RMGvpTezP1Es/PWZOg2Hqj5RBZc4f169A45AVl8DO4MA+f/Q4iEZXbVpp7R+yjP5UejqwB357FItWcRGnWbbsJqi0CaYGhL66eJu5L7ryC++5krZl0ikgBaZjvQlKiL53Mcmzip55+wt4E9phQy0FdAAAAAGUIYDRx+gnZYm79iGBbwwNA1eL3ciucB0yTR3+r0p5N818k/XRtiKG7b6z+eGO6DR1YFE6ay1EhUwWr2DSlAcEGCcd/5jnGLHQpC7Pdl1RgyynzfkOAm07Ox3GT/1IMwl3m3zgHEykbAGP6pmBv15CMyLHVns1p6uRGYQFm7VRBJae6stu1WBlL1Xpf1plBpuR4oqcP3CvVduiKQQ51fk7+6RrZMW08Q22niG208Q22niGwoLdir6k4DVBrBc4VFOVF+O3EOGDHHoUy8GEYxK7Opu8E+qPbutd7bi8CfPrY1k9UDoCBWSQwUObaLhoxqQBvjKf6puEsQdc7SkgbKnHBs+2rqNiUrymbXzQKhGkh+PSLHvEZuWfCAXUS+b1LLgbmnY2h0b2bIvKu+HYhvKC7EecjuPwzm2aQve4wOc3z1KuMSJbzosLy8cFSJhaQJHmozF1RQoOC0KTuM5tNHewrm8IS6YrhbdUrOtuXLcDgVT7/LjQ5RRpRclUbcVOtuXLcDgVT7/LjQ5RRpRclUbcVOtuXLcDgVT7/LjQ5RRpRclUbcVOtuXLcDgVT7/LjQ+FogQghDyrCMcrX1ATUOhZSg8qdkbfHGKBr+sKWa9Fj9qpK/trx1WWH5f2MzW9Y5ktHQvtkPNCcPUTBKAmmwViND0vZUi8d7j1KSAITvtlfPTpJl6IfmJp7zn5zsBFI4qaBEc9GmNBiodttvUB8bzMwEIYB5i7XYM2LH322Opicg1rgvUnMVDUObRPds3Dp4PhiLqIHFGMRptS4wznlA0TLMvkpSomMLSbkLGS5SeicrQpInHv/6u0cEr1KEYXiTgIpflbMN4Tp8CPvsmHT/o4ZS1jPZh0gV3AjJMI6milDYJzwhhJp7+s3KIKoWcjpAUtXDoIhNMY1fJBzrX6bwdm+P/Io3XWabi1UQYBv0w7TueK1CLbBov6Kk5EhD58oVbGPTfent5nAIdrxJsy5LY5lH/1FIQppJmXIxYLzWtNQp88PQuA6MOoGoMLhf7yBOG7nUjGVBrVSKj92FdZ9IkcTuDcw2sc5cWwdEK6FYMtaossEQAJdVTiDRviPUAAAAAAAAAAAAAAJ86gC96hmO4A7yhhv2LghnhbClElKPLQFlRAy9nXZ/vA/ZkvtjAKchM2ysA4ZPvbgTP0gkSC88AZjYMwKhSke9lwPrgPN4euerRdldaZ9tMmCugZbXEIKdbUU5eHWijtcHVweSDrFqsdaLFCA+y3ePEwyeN3ZhbkPYDWfGIAIxnbERybcr4hp2QTc7QplxCi1n+wGnRa7SRsJGT+ZlaRDN2w9Acpt4WclOpQ69whtn7N3PeXGVi+jROpRQD73AXmJ+uHoELP2K5IbVhMjLxjKkG2VtOnjpHjUT33XBPVcCNb6aiKZM8iIjGeFasywrKfrnM0GGaNfjd5MQqt68USGZJBkIbW2S/HwSAbIN8+QWXRap5LIrm03fR08vNGlHdro0tRT7m/F8Lmt+QvLg6FVotBbIyJ/mYnQq/xg6vtetld2GF5u40eYr/zgzxLFYhVs2ZWKN9Ldrzt8Y5G1V+R+kZ/jr5Bzz5XQeP6Hf7xhGPwoIjvo/+TpAC1IBcrlcuNQtTLzYf4fnFgUY50TFa0nCJ/EW/ZBm0AAAawalX7z4BBNAjd85Hg/cCyUpiDPQSkZxZO6ek2Ecbo5YtQvTqa9ykRZifkcvEcUnoWNCXpKH+QMFMSwYOdgI9wxrJAIkMZpwaL39goBxY9M0TjcDwyfamK1XIcjYfhFY2wejITfse1yZoGB4Liw3j4WaVW4cfQ/Jf/JYMPspGHn4NL1NXTn/+Bk9QZjpipmk9xH15H3VyQxKD/chCiznMJkz7use+Aw3C1Md9IZ2sCtfXcoQ+dLkT2yP9XnzFlq+sYO3fhfWHE62i690kjczyPghDnRkOs6zk096Sfp7U1S0dM9s0hQrLCsQxRYCE7TOW/ypKtY94kPHF9Surw5tDi8jWDy5DS27wAn+Qj/jwFT/CK0sCjCDUEVzuVhPHzs8xO835uRRb/SB93PaVvKowYqkNQAOlgzt2Eyban4Afw583bOf97nRBuH4O8nXPYKrxpO8yyx/Ea4Q8B404DE2liSXmsMyMsMdCKWgWu+UsQiTMbpigPutiwT5XlKXEiikwxkmND12mNCMFuwzHcZN2oAAAD0c/UXHEndTXanfCMIs2RFLp4/joY8MOVpKvImOP7IBvmi0Pra9QfKYMcVv6zU5lM/pcYm1KL6WQAo+HvBlf/esuPPnE8vtYu47fzEBMrxpGGG35MCt+3zK8qUXLuXBPOSCFH1atGRyNheRrFi1SlhDTOYYKkK82X6EVZVO0jgL31DOURtMe4qOt6xWH1YuEa01dOQxP8v6So38TRlgHdql7NNKaDMmvzf+5UENWz5VjnmipDW6LpZY0D8s5Md2MVQXEI3tNIO8YhCxJNxNUu+X/SMhQaea6y4DTZhuFRVp/jCOcft8P972IztLpixW6530r7Pb/WakwShhA6mUjpwREGYdYraA0D0qsZZoKolvKa0ULR2uspC6ytfa5C7AUPpKaPyYJhyF149jbop3bFWI8iA5QoqvD3Y9PZ9dxwtGOCo8Dm/U3UWG7JleSQ7qPo1ZKmQnv3K+sY5N6cRRYeT1LLBrAAABLe6dyZz7bXnyk600ZN1oa6UBcLdWaNC0Nw92MzasrrdjeXGmPCM+1NDVa4t1CGGPLj4YDpITQ+bD0DgxgCD+0kgFch8S2g39zItKQQum/PVHXKACWxMHhIiVBO6LdSLN+W8E1NxiptxrsMExKhguhiSWFA6M5FIForrKL7Gx0VUM402zEGcY/Vu8zK4LKIfC+QLbdqspDKt9/EwcdFzUXZeOB/SG+v09o+P1GT6RLJIoqD0+JbU6IvhGEZtVSa/ScyjGY4Hr0LNyuC4Ky7s468ffnnYFGSZvX3DgAM3YaNWcz3ARnTNeph9Fx5XMJhOkSWQSGqDS9JoNDTr76c1AE4qIfK/Sm3xiAgwfOKbbQtN/7BogGiRq/R/xtLGZgxO8UKSnm5/WPssRR8IBue289lZ8tsbKV9M1dh8WOlK7+Q7zUm7dfehZ8LRSxd41drGgPQl5Bj+eAu8S4WsXOFwtqKpG8i+CpIho5rbAoA6b+RNjFJrpPzZ1n63rxRPi1XMzqeMisG2DLW936+cbSMnIvR6z6JMg3L4yMAAAVpysO+yvRCR5MvXGWtFSmSn2/VhmZeuESzRZF00BWoHH7mczYz5y2JcZ2AsrzrZZasjEFccJR+kftsUF8jED2wrStP2ufWyYw1B1144XRMvmuzfqMBgOWLbECbWjwh7qKqjev9DK4kMbX8bK35R4yQemba5SI5OXaF1O9gYXEEWE+b1YzqEfTTAM35v84L4qMRWxHvxjgDUL3Mb3jxDllGzsb16flXwPnChQ+FWDrluEKQLyFpC1U0EI7agd0uN9iDlTJprhrjjPhd8yXkUQIrkhdPVLJIUdrUcSQtixvpZP29k1f5gNByF3u3Ziy+DFERpOOD3SUUaaL+6abIvKYdQol3OhG6MxNz6QSznhpZ6y8nqYoWF4/6QOpHGW2CdRbdsiIbZRj9Csy2aaQwOz7UQrCsmenp6WR4via5oTX+1Ms9Ij4TCKUocFwjD0PWcUsyLKqRIAELDOigx2Z0NJQphn1owMM5hWLFwH4+4AGLti/ikrvk10ZNXEHWTmkzI9iQcvbP+1Q7vgENAcSgr+zD07XAcLSD4TweaJcgJubbQldNOg/+o8o8gcas++rF7Q9gaqj4b6W6hFXimuCwI3Pks74PVulYTE3vYhHGMrDs4+IGyQ6aeTN4hnfjQLAAAAAAAAAAAAAdBJJiMGr3IMdZtKTYemZjqlHFq8BD7AQmWD0WDzcAdi75+3Feik4OFUVYZHx6YuRlrQaVtpmpne1F4AR8f79zu95RKg6BTEQLGomhu6c4IrX4S1HrR2ae038yvh2ETYSaTvULi0ZWbc4Tn8wB7DygMrOeC/q+acEiDS2wEjKnHw1H55XmnyQsMtWaoLUjn9kagIatUUNbDmxt6SgeYn9nhGvITZBwFSUF+b5xwL/PkRPdoZGaGOM72l7gCbGXCS6UDAWyfMBwB0l81TMuBSZcXW5Zz0Ek5MlXVLbeAXwBzwup7ofLmPDljZOAvQ84mJx3bCdRJ+0zMPbXwf/vEFKkvE5j4M83Jdp3JGeeaabMIG2tIwDFkVBtwwVgqYLCzqcE9zojwQi107vPbqN3+ZU1A+IsDtAA4+GqnsgG7pxeutkqHWAGwKahKVbUC8+l6zJB/sqcq0KBkd6WuNJceB9AnD/fbd8hxIRVhpHt9jqTz9UzyMfMkQLOK/6PdiBBG3PoE1681PIasR5DC79ZiGtlUmG6sQx1FUi6vM0eZndaajurdG6+UUSOqA8oD5xkpKsSMUYRhaSn2ScWF6XRZF/Lw1tz368LSOYsw3jcyxwPKZVVFZdkOgs2tpi8EtyWjBdQlaESTiqBV5mt8h7+3dO5jZjM8ZXtYJ1PTea82R5lIc5I91WGzMy0T+ccXln71W654vpfILZJi5eTOMDAn++VNc+KrC778/HHVGitdPf7MBX/ZXhXZoCODOk16JmgeAUUo+jSomaB4BRSj6NKiZoHgFFKPo0qJmgeAUUo+jSomaB4BRSj6NKiZoHgFFKPo0qJmgeAUUo+jSokBenYzFy2bcKXjHiIA1kmoYe9iIIknRIXN2fZ9Cg+VNWuS3mffGRApEL8uROQCYdkAMjipJRTktARkr4F3TzXmTsiAczo02mBIcCIF9LfIMagbpXoB5KdQOoWJHEnLrdZC/b4w7P5ReNTvZdlrlJlp5RPJevzLeuC7hBiMjuxU+EazxQgi8+GHqdjP/MjYF5lOmsu3tdDZoDzrVp7TChEGjHa+JtEq6Wnz1VGyAhAxrimY1V4ChcQ4eUj24QUlhirT34QE5lCC5UEuMD7Hpq1DKLZ6NJ+oUXEJGFEbyRDlALZNAv62j2x5WBNJywyrts5hgdfWXTSF1n+fzgA4ZCfjz6synCzyM6o6mIsMM6+jNesB9hp2eNcCh8znfVFL9K4ES2PL1Q+YpLZb2RE/X4jgJBEr40PHj7Z9CrRDKk4bdTze9ipPoIOJyjA4DmPUE8sNkIo9g4IrreCyfG+EE3OKYd9nxH1GUMXk+qCNmOvkCrtKeDPkAObqtBVr74fyru4fJiTNFVgGFo1I5I4X3y3UicVneY/qc89op5wwjXAOP4U3U0mRHRaymRZy7jRTrYbuLukZmV9UE/jLfWgPHit89tgKH+1a1XkY1evg4VRrOOuwUH+tPWLZarhvINhJJBeQ/T1Jrl66S19aIYaYbEpgkmtwDchmqcaW3hkQkxUqGXuDg+aqeLFJS7ORFvNCXI81DknjpQLABLJ7cT1OAGf8BUWQIdZNBHVhT8GKyQO9VcKmguXtkKQQmqDOKpnKDRGzXDIYgwFifQK0hHruT6CFvGx2qYT1HkXiKPkhOA8Izx868tezhzc6rHO2UPN3U/v1v50i0FeTw70Xe1SG3eN6hSYwWVsktJ406SlVNFaSYAzuANs6f3uS1lRj6MeUAm/TZ5OqobaOCaP+l3XHHnE1rO4hACcHoT54l9A3hiTBEfv1iyIjLQLOqUISFI0kpQNsB+22/8HgfdWT968T27Io1AwAWH3QcyOE+GDrFAABrxGRboZbrQgUU6iidRf1GxqnRxFpm9ekwtR0BoZjWSzfiHpeAB4AO9b6cPgNC7cAbzfiEmx5bFS58uMcxXTXHOBXQ+ws1adfDQ1pOANOYSCLO34gcAcovJ5quGdwxLQSDCnJcdaA+ufv1o/3RK8FvqOCH9z2o5YTEUa+/bYlmaGV6o2155cHoQ/26KYxb3KIaFXJNHg6ydFbxy7VE1kABnXb9DQmB6Jn/R7jTggVea+h7hytjj00ZpWBoXBQgZucjxR5QIX2G4NooMmYAoT1cqoTt/9sWvCWQ+sNxODgNEAMfb7cCa/NlgVhTel/5SNa9pLajXoBCa6/excrYHCLm5RgVq41IePWwxVlszAX6wvOqMBYClIJCDBEHM/MtZhMoGSeLB/PWMY0bUeDuFBZ7s6dO8/Z6UJd2K4t8dLKHERnCBhWF6xasCnseE0qSmtZ2AleFhSiU+YPAZs3Nl99j+ZV1ze4AUuXiV1QWpFc7iwQBtkqroRmH79JQvcY8ut52bAzfGubYEAR8bYLdESTw2lltKQaRi3CWv5gwJXt4zx9IHVXZRPET+e0NgJB8RLQ4UkJd8ae+mryshScrRQSXnrnjypSIRvCiWZ9PiGGa1D8RF7fHKR36Iu9xMfBWxLB1uNf2XijR75iHwLJxCDHUYXO0k2Cy71uze3+o5Rf3ba7yxkI613j4C9P4fYaR20OKg4FMheNyrMqoyWzGzB1AtpnG9/hOzIX49914GUB5thQE01hddLbTFjTLfDZD3BNEfhUReL2LDDA9RTxA8JDUEndeE3I/A9yRHYRlHH+Q2CqLX/mL58cSCE4et293Ev7MGrQ5j2csnie5gIItmCQQoJ+9j3MrqKFI5jcRj/zAwVgmIqQF9A7RoIeivyF8l5da6mYkIMJDfZsWZ7lXNIQSd2QFr50yhsXU1GZvFxPrlgCnSYKJF7Y4ZQfwX3gH49FjzZCY+3pWgdMHhwOmNQxIMvEazB4fKbKpKArXWa8ZnTedsSKZj6kyOYCp/Ja0AEsnicdU5x4monUrNXqpq+UPo9ZskvOHnj+Uf3yLm9YMmqbwAlFUes+piE4/jN4BLiURHIcQo/t5KXG8ln+0zasknecBy0wpqKPwuaWtJeW6d/OsyRG9P21FQRiywyMe/m8qbrDIZyYcdNh2Xdr6h11Tca58NQl3UvnETabmzhYTkR7ymo9S1oYl4EZ4fOxkm/lyaEvGsVll4bXts1RdyVT+NS7Sj2oRaSHMvvC8DHIospPT2/B3m+JjKwCqaqqEgjp/wV8618rGEpSgNc1xPE/Kx92uEmvqBGR8G+c7tEd1p4eJYiSsW9zTLrALZ5WGN/Cc4Jmzu/vnvu0/VyyNR4/EEZ6B1svdZqyivzNBgFu/B1wM/sLx5mhwz/ip8M89dh7SHS5bNAsGmuXf5Bg38yTqrQe918C50LyzEqJROSOdwXxvzBa+8j2s5bwD9o//7vvY/u69ThaiFk5RTsY4aH19LGlv1h+UGNtRnS6PEa2Dv3y8iypxctpOfpUWpBWCbE8qaJDPlb/xdf54LfywE1IHu9pQpfxZLC5v580jD5gDcC/EKILKJsiDbqOKN+WR9tw5d8/4uPn4706LVCVPSsfqz9uUsDLXF1ngCLD1s5GIUy2fRwTNX1PwBNXZUNwaqUH6oRi6gJV3EusGOdvf/3YzOc7Smi2ObfGEMlfeJjn/DMD6gAKovw7qJyJTjTI9SF990ivM+Cx3CZdZjnGFxOUj0mWiJ44JjggELAqjRYKKAGa1xE3qMY4nF8M1VAWe9Wrtby16QCRAAqi5Vug/9dXK1XcR7ljZ+JEh1kuLNKuAxVaiMH5ulL12AKkFbPcjXCy/jy+e3i+nN8iydkwgZNDyto4IFuByCt6ujkRYni6t7bKmWXPTgFBY1vgluFz8yovoyurjS2ebBDKoUwbaqTc927MVUb7uluRSK33sNcHZ7k9AwwPmKL6mZsLgwyzPzCQ3PYbzx5f1gyfb+IBKdxWFfbyzXzNOKR0KoFE/Opebz6feNq5VHhuTJYvvD2sA6tTftozb9ib1LPT07dpadzlgcs9gKb17yMAlEE/3Xpwo41ZTCs51KypRd806jsmeCzyf/gU0+3d97DWmoeqqkIf/czHuS+pXDSW19I2zjROWKj7+kKLkyZ3NBllrTMgWa5NO9OUMdXWiVRLFIUPLAIn+aW++ZaCTnbeKavAhELIMFuX3+kGinjEGAuIVbDwB4ZSlGr9dM3CyoYRjsKR3HQA4cTnh1jSvrdCnI0VUjs8qJbmoYPl/kWk9pqnqWvk34kujYBIofFmLurPnO0bxE6ZAJbjp54chHPvHsXU0ZRpUFw9bjreDICFE0BQgVx5x9NuXvvnvSFNVHAIJ9WFXC9xLJVfGa5UsXzhPUrvutbeX3wY5sMjlIt1HHbwkMoSx26/kQNE9b5+Q9IdyXCI0vnOq1pzC1c/DIT6cTYTs1lEtBe9iyh6iSJi/kvLaqPN2QBsUqiJdkLptybDlpZ9GWWk9864Kk58EFR4PoIUrlpRoZI43nGPpLKWH04PFcrePBaGSoXFwJqUm8jI1qmQ4WBExThRFYBjIBrE9BXLilK1L9zN20L82rv3EHr9T4Zh6bLbwSSNelD2PL3mka/xffhxJgDvvBnlJtQgQeRihOe6SI5R5FyixNakfNGUa28M/wnUXIZ7qMhfYuQtXbrdkb5KecSufDwLCY1ExbtWKr6LcPivo1Uv+hcl0K3ATgOezfwekvK79R5ES5ANJY+fdrBL0/nhcyDUERYgS0GeBKmlYxD9S6ssjd8sKEPZ+BLusbXq5+8V2+JIKTN/jbhZW9gbjKpf6Gg6cc4Yn0uqT1i4zdtz6WkIEVp7mTxV6bKjZbnh7A8oCy7gFUGxcRSEEPr1mj2F0Bi0Hie/FqOrjiS5ztlW0POuH72+I6OW39neEIrjDuQ67gASfFzrG/Inyc99Uak3KHJED4+tYSgup96HSKLarQ9rWOXkOxXqSFLeH+Mxqbz1L7DuwnOpxIjMYD+Yy3l6oDSebE7IxBMLIc71pL4RMKEcE+QNQKvMtp9/lXw6Cxsd9OM6X6RYOqKy3wi36rxn7rf7tM5nUAXd3Ho/b7pLNrtpC/FPyOfBqPqOcvH1CPeoYWtrAL6soWfnXMrNVGw9wNfgbRZYIXWUtneVXJjJjKb5sy3maVzri2H/4T1FHRU/lO/qk4oXsSSVDc6BZkwEFObDS65MHcR1ERwTbipZdCUH8Y2TIvfTiXAEa7yw21aIjU3/fgB8OOlUo4lT5F9ugsp4gC/7Ei0n1hNgvJlsxi/201FHEVcb1UN/DinVFCkH5sqhu/l/TAPJ+iVxgAIxTz5CanvjGZWsdlvswcQniV1S4WgECV8Uds/vfpuO6Nx6FYuAiQjWc0Wh5Ux4J02+3twB/dxOGNTQg34F/YGbClxM4aovr7jjCd/jZoA19tSx/LEL8MInLFOHwZ0BNvScZnRIk3ZXJeQftyyVLgaC9xb0iRGjKen+XlhbTo8AKLwW7WHcI6FJqLHNj0U3NwCtx9bD610pucrnvTrEb2jCmZx31ssuaaEjrGnwX1Mb0H4eec185VHIaT+0xrAVJriSZg04CAI+TmCF+NeJohR20yxRWLYaYOSraIAuzXPts5yHe5K9kkh/afDRQLnwPJ84XQnIdFDsguIH9CWTWl95mXbs7Mgqc377HO2PN48qtMp/X33cTsCOQAoQgNZggfndbegVC54X1YVA0upBm9aRONsiWO0y+TusjYvGpjZRgFUfONwWpQ5w2XzIbVRosFJ3fwvL8VColAP5NKbglCteiBTp3LAM67Z/EArYeNONp9dqflYl0r98HK58EgFI0K0W+WnRpU6eN2ufecPzP7qdVoZOxE7qcAlAFatf27W0r6RcePgtacaQ5xlkVo8o7evoKXEdTMWIelr3SlU2mR8mn/HQiK7b9Py0oytDhs/UvPvPPzQ5YyUOZut9LqXkfQkktGlJ5K4OZ0F7UtrxKwKA40/GWZfloqCX6LrmYGJzAgBRFRqazlzY7WT0AT/ia43AbEqeLbB/NAtCV8oD9dFzGeYTjuQpu0MKzkM1WcUnFxvz4ltncnq7+u0S2TNkCys/8ZLOLo4SFcsaLoNz2I0emS5c0VyB2rD1KnFLCzCyPBowtun+HVu2FnXgMHtXEIiT9cyKo18rWqM0Kx8YdBonQQDYGEze2aVFN5yqCwpvb2VY1TlJnRY8ofZruZRtbq036CHRSJKXsstr0YW0oxR45APxDSCaZ2wdJe56DBgZKAxVPlws9cG8jODRMH0kPxfBMz/9+vagl4NvAnbDwjeTHq+BAaYDzwOWDU433JUA3UkYfbyK5FwK9xkQuMcK5xfxH+8eigOj8QdxFoWWdb29Dzu/x92nG/6XLyitAD772EElzZvGx9Kpzo+WiCzuZXwNSupAI/ebdGINCdI1sv6fIbE01wr9T8N3sRlr7Waks4UONUZLTpbe0AfFrtbGf3dA/gN3xaaauSMaMMI4zQ8BKn8UCTlqa07XCfBoHHprTNVuDpVxVbcidXOHbyZUgdzWtfrB2zrMQxa0rew5gfDBd8vrCwXTsM2mdO0Yb7b6GjCQbg0VAXX4ioqAYOZ+CN/6FDvggQuZt9ZgZM1y2gbjXc2w0k95wFOcvMVc5h+fXdPGlyRB2VpYlr/Zm/cOGwIaYG0VAa+N+UmEpJxp8LnBAsLqQMDnUxxO8yekN5yyKHeNifFT94P8JPCRBJ7lB2jER4HJfjbuMn+SQuQEpY1ehq7lyeJamIPDcEJH4/y4IIT/Lw6ifm8+pNJayGR3siRiRIxIkYkPfLy+siRiRIxIkdlU+aI/pEf0iP6RH9Ij+kR/SI/pEf4gqoc9MAu77tLBXkDScrgmiKuRoazz/6p465faYVOV124tCNDOgUU/a/TWiezFvU92ODzC35hFrtMXLKPp2Ojcx+HVXHC2aeSYJ3GRa0zjP3+vW0EGSkAqOn81Ua02JKO/UQB9oqykGyuF6GOyRfnXa4xcbyQNKLUE/mKkmQMrA9w7s1jKS8MPGE9CxRIM23apULXleVCuXzLexu9+nTLNOKAVs9/MDRo6MCpXzWeXsrJl17SEboRS1yC13HtmAapj02lQ3zGYyGSPeE2jD0J7dijbDz4Fk7pvhYTnUHHuG9Be3AjbFGVVpywBLEP0QOBGZKFC4q2wTXPX+aPcuF15LOSmAWf1lbclCM3NUlJQ5WM/ZWe0STi82mDH1AEHjecbuq5z5fcr0znrEDDqwWmJpE69aT4o33UL4Bn8f7bxsJXlpJ8iqgSKi6TUOKt8tmP+BsuI87RMTHEJ8DihI1ntk9uQTvUjlzygnUHPFp8Y+aYDLsEXb7gvqyDG2sibhgRHjY/M5JXO6cI5dMZjMFn3ClmJ/8vIGmEnO1reTP6fZVydlXKzAVzLBte4L4vTPwq5xO+l08MX38WptGiWqEKAOc2fu3LuWi8ogj7Em0hoWubduZQ7KUkiQeQSWMNiIINBg6EKROQ8fN+cmlIBF29O5loN6KT3oOpnrPb6XcorV5yKVLGTIUVfUlYLsxzI0///WRfhdlVziBUekJwacwaZYaEN2AKuTx0WF45XH3yIh6tiBUsvQhAjQS41OceBmPnUmfdHLBFLjxvfn6UUwATERrio8I8dAO22f0/bBAerDUsPe5pkKkC+IaA94xNewH2wNIjQyfk8Ayk2a/aWMBYLhggdpTczQkyTbjtL+Wd/uDLaLQLxjJZMvPF4a7z5eFf2XyXCUYRfbi81J1unu3DmiZbG1/LPIXSy7hbeklUYm/itCoZFPnFS57I3PKsvZiQdKz1DerAoiU3Ixz3v2ugHe/i57EDukP8Ux3+SNU34Zeu+Sw1E85OoxmjwLfWV/vIKTTsvtaW7SGswGEz83OA+ynz6yLP1HfXbRVOuc4sppVRAyLAHuCcIXrI+P8dMp7dN5NJfMHA03gAAAAAXo1h+XptyAamog+WmUwto+Jm936hKHZRHG4CmEfLb+7WilyRvZpSKEQ8CxdENWKLYfTLOdR1p1oCuXjbtGrQO3pegtgsJgwSg4k93QPV3b6wP8GTVt+DSENWjlZs8DPO2pig66iN7Dse5WRUVuPPuGsDP4b5xgh9wZzyx+OfEZmbHv4bz+axHitE2hy/kW44gcn4rdHNf89X7gY05t6Vcyk+EJDQs1YsuOOVVZxTc7E1icIYEpG+Ob4ayoqMfjUMB9HRAJsJjf+p5SQvvMLr/55OGsRz10T3DpCcGz8d0m4NvYRKNK3/vAwMWE6OBMFOvt1T+ZdQsb5dOy88CT0iSHLoaXHYz5fbHMGol6/u1MMCeHfk4/yWEvz+Q/mHEBBdjASckCri8jDxKg6dfqgRmqPYDUo7DWHmo0UcMJU2yeyoYM9CvICM9FqlPKNrf+jUPTyOBhME0YnZ+ONzyn43upNHvLz5MTAMne5iwzpTbtcG33dujrkqt8XeFKqQ2a5OCM/KyFuAeZYVdyKx9TdCw6maM2bCxQZAryXF22wiE0SXYi0/qoONyWCRBRbtYNQ57b03WH5b+z0any5rR0/DdAz5PrvmlV6XUgGaE3VOYhaOPf4A71YcwQBteWHnO2roytb4g2Endaac6EbLGT0th1QFySk8di56zxuoUfWmpGCkEyEltP2Z8cUHfgDtAvrWQikVx4Dv1q0mDGVuupSDrGYRv6G2EHzvkrniaOJvNB+sZ6aPk4Zes6VRtxjuf9D4oKBCCT5nrE4istxhEQQveYBIL7QCIZoliAhbfRCkKfRr6AjkzDXQH0RaT65Rg7Ol8UqYO8TVP3/SCzXT/E/2a81CYoJ6raGgKjIP0disHWmAX9HybPvKWl83mTmPq3AUUR3v18ZDs028nTKM8hroHCCwVH5TMqy81tVL/VcMypMWYvAOUcXk94YOLICm2pwSvxLLgPpUL9xVFuSJGYUPdDIPqqT9Sbj/Zw4NK9HbTmvX/rzLcPDLvc2QvacPeaG0vKiq8PC9bcX+pjOIqZU1lJm6YZKVGrKjSVRdVpHwjv9hQ6xudMkIi1h8CF8N1USqQh+dS5DGUn90cltyiUJCTm68+HcydM0LCapFTxMmUEr9b15SgAUP8w09hA4qIjGEGwwvcwai9yhKfhP8/qNl0tfTWVFUJJZaK7+0aVPeA2r36p4BFCNmF8mjjG+EnJA8eE+WcmJyN6LWTN4wjZzmS7LjCWrf5x0Smop1zXv8GZiaMSzXZL2q8vHv0AJ4TLq5s6kGjWLNuTJ75/Y5MKI3OUreKJmKGjh7bfHbBtBDMnZI5LqACe3kwKcrZhIVE5v6nxN5GCsVpqXXVbgzBvkt1C68m9hvLsT8V11nOQpRiXB1GCpb4VVck0KdkeKJs3g6Q0q5wtdXwjLE53WFXIy5DuAyyBXtwid3brGqUzPFzyo4PaUDVp+YLSO1zAmKQs49mio+WDKi71vUqcrziSCvjJjdbOTyRs1J7Oy5/HT/xqqIyP3uXglcLkwHN7Xzt9mR5PZPKPO2DMVtE9+As14qZaPKGSfrPpp8nedGOjZuPKwcNhvelD95O1sdbmIWjKANvpLN2gxI8XiuINdao6M4bE8afsBUeIniw5Vc4sc3x/owfi44bN2BKO09tRLrJ0XKipvRCg1aQTlMMtp1oHTpJLxjXiXnPem77IShsl2FRJYHLJ/dyq7RP+RQBuGd1eFPxdBA2PuTR33YXBdus/sXL16dBTd/b/26H5c340vKlGesWgD9z9DjwgbGHpiK1kmVPR47mbo3MDQgn9+SZoBWpAsZbZr7eRWSC//d8/JIl6eXbfz446q8S/fujteF7Otvqo8noU21DX1Xojjgg/4RKIeOGuzpcFgnm08V1s8Jwb33G0xaLyaNLiiyAeFfqsWx8hzL4dSEzEn+l+IH4nzkiAKevYbEZQjnomh3t9bk8YC7DPFPa72IugAG9/8JHRi59BM+8kVhl0OQaqqbEhtXKhd6Ts8xfpd9EPdnNKOschgy+1Qcq4cPyDMaIk5LyxYyxDoxm8pXSeBHZjR4zB3INMmA9WtG8HIb1NU8qu1Cq5m8I3uqNL3ueFteYqh4/CuE2XpaYLSdht5hyX2Lkr4mlTIEQg4nZ3CMxDobx/UWxag6c8lRWnjUHf4A9rcbh1UevDaebUmFQoCyeal3brZbULJ5AAl93LpYXyRZNhriCBfZZGmdFUMAAB1sZJlI/ZsGq0fht4gKB1Boe4Y9hgYcjVkxvBW+y3iL037R4Qu7KigD8a2L42vBB2d0tPBO8K22zUH1HQgHi+M5FMmesNUxNOpRuIOFOf0gGiynqCd3iPk6RQj+IZ93uvK9KDAx5hMVqo6KLSVDjSOkVzvFMuRATZcazG47fDAHcdt/mqrmXHTTsWBeNqxQT4YzZB9bnGev1jVJF/UyWgQOTDhGdahkW2xCByE//Pjy9q3Z8jv4FOGJ+0UcHeaHC6cLI50KplzwwAHIqjNOlXIySCgwEsNoq3jzxWWyLk2/SYBBD8vVZiV19zb40BJcB7xFXvedWlhxosLOfaSSZBCVpkTIJzMi3gRaIavakUWbmC3z+JWQSQJi/nx2s/lijevLQ3D4zREWy1efBOCFHA0BgdP6SeLxabnbwDhxhnhPJ+PBwtyJbg0/+gAw0ifF+nxeaQcpPq5lcJ0MXh75BLJoaQXAy1slOx9vE0IUDwEYrhbZy1RQLopIvgvDglhmqp4Zxi/BlbjQwLqupOHKcl1OhV8TQFRM4UZ9agqgLYtvzOtSabkGuf1EK7dAPBH7qMThiRKhUlZR/5y+a6X1zCxYdrjjyPxbHsKV2llUA2U/owXoNjPM8tPFTUlogv2NXo8ftWyxUtDHach3J4HyQHDSA39nQKa1xOiBLu9sHlcoRxRyS86nZsa1Ac+2lW/7y+y08VP6ometc9mKy9iQicyaQpZ5bs8PO32hKbAApD7RdQc5q2gyxwlDGEZerpmkh561Gaweyu6LRPNPmx4AsgO11wFSH/FA8nNFq0vLBnF1DCrkTFmNpgy5Fl2mrmuidduMuR8+1laFfPBzOKPVpAc/KzjH/CLgVvAgloClpZip9PLdvSbgiYHVdDf59mH/pp3YyQYEGAJzmJh/Hqe96DiJ+KYWlQqsvMjZvU2PVG3tq5gDeheecqWS14twoM3JR6ScMUbTAA0bnskKOytClOaV1vpi/o7DBNFDwU5f/d9mOVrWxKQc5L5YBiSoxOOWzOHrpFv6zVPANIuMSDQfFI78P+wyV1Zt07jKAQGOgBDJ98FdOXIiw59iiLbdLGFBaZ12eNBjYf9esXsj2OgZO0UN3Qy3qD65WdU32sjuPGLBJ8MQslc4BzFW4lF72uPP0B4b93m/WfmtsyHyqw9aK6MO35AEVWGw6THCCqV1MoEc+0VCK8iE2xhYwLJtbQCF+2I8REeW4q9/M9uRhWKrrudKA2xFECM/yUCA7GNSMAThpG+q47hn9XJqHMmhuoug4ZfptKKWyo8bDk6wxq7IoWniDxR2GrUmxJ7BjQdqciT888k8dCAr3Vkl326uoQSL3Xj6vyN64JlxBFGU7pCUt65lC5UOMJpdp8BnxHgTdahPMoLtXA2lvNSevvt2WdY/Z2Jd4dUIFecbWrRm+QZcQM30jsgP3+LgaJ9PYp7X2Y9yxgjIa5gw6l2bxhbyQ6HkbL/pUlfLSNGoj4VP5bUmWPgYUPVQNQkduehuRG5FbqCa04lhSppQtlQW5ZJCSj0XPcgnXykIJ+OTNyIe7XmkjP5kxKFgRJ1heIpb4E8SaH9TIG8FH+l2y97C/c0zPgAnW6yojjrBanV1nNS9I6yZvElHhm9L3cS7JUJj1g6GJ69kKrR8CvhDeQ/ITWOQevTUM0VsyCZ3nyTyasHvnyf5vTYNNUeNjxotjcgJg/xHwwCvlb/jmBuM647BXUkMQ6DshQbJQ6rnG89JaKNeVH+iE2mZurj64OcwFFsEHpmaNd39HH1Z+0+0r11OgtxmBgELarAWxDQQX+QkDLEE4BOlnRR5oO3RvAvNoQjOUbisXh6Bo+iTrtSnTQLQ0axfw1JdMFFMRk/advc5lZKhdCeDO7xEePw57hXsaSy7OYd5KtJ8fdztVMEegMedxkmW4otC+W/jfMBTK3KGqsHwZqW+tpjVYgFOvx8MyJVVCdStEWNddwa5D36KdVeQ5lzx9/vKRZe8/Q1qE5AAVxBQxx76RuQN8JZ3dkEZHfM1Gro2Q5WWiuvF7N85fxsoVpA8mmRf15T/ai4AD+a+xbrvTEO17WCcQpiNexzOg9W2rg5h0iE0HsB2thUgvFR0kV+wBFgjAw+Lq5BWjeIc5JIrgitN5leaWgcWBbVl3stjMPxZWxRsQsz3eErxdMYNR2KDcmEPqQMoL2lf/DhrDKQAVdYxdSc14LLSaLiVHw7MNdpk//u/5LhTYvXNUl1tX9kIHinc/8+MiLCtHKWLI1c5RV74mHsmJ/44PhsS8FrYxbdrfKHmLl3mnW8EtA81ZjK53ppS1HzSB2xaZAcZbviSA1U5cQrxIaYLSzBTvj/ocibQC/TnN7Y9exTYPkRWoM8QIVE8QSmoMkC6fplfRw2v7B0Py1O/kmg1s7Ioz3lP2c+0SnmeD4yhbkE9MCDQD+JV3ySvaXXnnRXWWB9RfPq6Vey96E+YIJPYBemazp6P0554psF3QbmAUX7p5SDMMGaqOcalTAwZf1Ky4oS7zmqFuOQbKCKEFi58TcvfIxeCBLDP9p+1flVIMep0SkWiy8HKSGL44QIVNJ0m6/8I006BDpxNGRL+qUIv36Shpu+TLrDVyhsAWqmvqobCSKAH8AjtL/2cxrH4U82ob4y7ORNIzO1VkbJhHNy9eVZWb5cZfirlEV0Q4+FVou4kKgfB/WNh5XMQL/uMcolDw3aXMhVFnZFdU7igU8xocWk09PPTpdl8zi23zETNV/t1PHGBvt9XVnE35mm7PrBEXEfqeU3qOVfMZW0bkKQeeYszCCSI9bgwfxka5VlFx3LAlqzV5sKo+5/5vgX76nekI4jL8rIUCZuSDwm1t/TJ5H8z/ciL1jaV6yf9IXyBk2AE/aRry+vd2k20p3jNUyzjcLdiKLDQ2fz8m1+TFEbu2pVtBZZUZA4kFErvRzdUoa3EMW9Z26VARPd8sMZQzknxxOGbc+7xDzM0ZIokSc/gqBUFZEA2nWvKJtyENCj30jbc+Lon83KTtwaBmCPOmrox6/ZEozGHLY3KNBD8pmJGxdF79rUYSK9f4BYC1HrwuN2lVHgqCoZectdMaKLvIxHeu8kgJQMOTe7DTNfBWVbUMjRLls/yst8pzFqHuNgf7PfSERRoCrjIaaUpIbhNmFbGiJnQv6BJX8uZwbcgD1N807Iq7LRm/YI78aoGj1hbqgVOZegu4OCkyULoTrZGYDtHQz2tw0SlFucQzK6AHT94ssnnW/tMl8ZIMj9UP0raLrEPZIbfh50nD7qPL4WF6A1N2ONOdr59+XY6LW04TRQ5WhbVTRtaR8KFlDGD9AtB2jF41J7Ue0EZw4s87TNXTUG2OTUbo1YqacoMh0QV3GdIYQJJYckAaahU/sJTUBSIQ7+hvGMn8suU54mviNYOKB7WCxU/HjwlWsrC3GFpF1CyF4KnFLFU5RoE+Eel0+nLz9P+zSVpRE3HYad4KAd4aIwqSAP5AB+rPL0cZAuXB7nIgRNTqGjB9ND8hGLnV5K5BV5LR7E9QYDXI4EXzt6WZCuM1JKtcyIadAAHXldk95BX1MXhE783gAj2e9DvT33g8YGeq0LzvEQ1bj9jqISvzA1Xs/fLCcz3mGQQjMTXAIgXm+14Mh2CxjjwqLu6l9b5lUvwgYDVXiQ/usLLJsbMcj5a8ddVY7IY90iYHy5dQixESFBELJL4AE1XytE8RjVeK7zeuF0CtqcV0T8kxCQfyxemlxE49lxAIGqand+QiHb2uP4/ikcHBK+2DDBYE1fuFO2TjqegqSCmGYEHxAiLmXKH0EFYnZe02MEXXLllOr3iJjHc3BtX7hkTzfQiaujXU5L4LBrYDrC9eB1MI8D4S6oiAfMVDeQfH9KVBKkgPErVHXZWV33C0LmF9SCdKgFEhjDD5Sdd0LLWet5386Pve4Aik+GjD8BgiA3kIPbOMXGHYCSI+WmwjWn+Nw+ZBJkVsMa57jrwBpoS47NaesSMLMFXRt3JV0fQLnuS1IwCl+UrnlqnvpIbr82cdOaNqKZQqKYHMcT34qagQNiB3k+YJALnp8+muy7QL59hJHg3HcFDyF1mvWA/A12BXGmQwZrMjAzjBDvhvv7qPAzpU9t+T7nMsKa8MHW7A7B9vh3ZOI33R7RpnDhqCKea+J77LzHLzSYhxQEkMKNc4/Bjg5JDeJDqJMx9gZtR4OrYa2aXQKijIGnuwYwHahkOdsVAHyaVGD1/Bum9doDM2uhy2kuN9J/Ungy2Vxk5iMYWxB7n1o7FopV9NQZaneiP4H7mvE9PlNFElK1SSdKXECCIvLd/OT9vjAaFFvVUQcuIX/d1kk+54SDnArgmfjhlS+zEzVP/vMVe4Jj8YQfy2V2ZAP2LWMVysbdDI2OxN2fYAIsuPrAY5bj5vVEUe/nJBv02fpoAn77nPByJY18ZowxodQo1FO/6bI6cQOes8v6eFQX0rXWnKQk8idIFEqIg5syfUWTBLtjiURdcb33zRmfTKej88n31jSQfBrGLbBOjHU0jVEmI3oIP9JZndqBuNFQLzL6W95tD9+EWxVSRwKCcsq9dOwTA+nA12nf0VVdcnFFeN1A7pZvBHjxJRZtgVJrtl2wGiVYTpHrbVTfo/IDln975I+3YYDmi2+jwxHo3c51Go9X4d519LO/DvQwgRi+MJagOffAACHljIjDA8f61EsOXKgQXreRu2JsPBzvJcNwWQDicJ8EknTrfzfci7NNZ5C472m5c43Xa2K/HGdhS5XstHcKbiDSviBYsX95uSAEzsTc7uaBxNahDTCQh3Ks8h6qG0bOi6qCTlV7qtYv99Vz8TiTDPy9iHKsVWdqAIMe4hdU21uDNAxTHuCiL/J5vR8WRi9NU98Cz0ZN2f3M2qsEmA2PKbxvrZNZRimJVWpjkLJJHAlLpmhc5MB7YF7PBYePDFlPCX6ksOK7vHXm8czjJs7XygMo8Y0iz5Vnno83CKWbMgu3ZrekMx7ZH9aNOsRoedWLeCueNdgxlxuE9Ux1w1W4RNYemRkuclgd4wkNanvgZpKIqyJtbvL9DN3TAKhRjf5kmzBTnzW9A2spGgHx723bCbZysk9cyxaav4qhA3R6wYbgY6p4LNYHsOoTRO+lbkres5LACUUW0/KDeG2MN6VMRN/N3RU0KwUmhd3Nw/TLoV0BLUW7SMLniYFfJm/GiE3xAqkCv863oz3L3r4Yu8wxcSEJvw5drla8S00NhHLfVfbtDt/rIRBCdRnqUEezWKmzqV/C5L9heNgBaNdP/jJ8RjXzWrW5TiZRxC4j1q29HXi6u9EmiYZFSqJFeRDJAbb78xjiQf/xLDGxDlKdYMbBZyzTp2jIuq31Qkt77zuWTwLCOPI3oWOxArXgpokjG/NO8ODK1ZW+ro32auLy5BoWARlXrX5dzZWTiPHV05LtAg58u3MpyhD8n8tI5bv73I/RcPpDVM29lXTLAzduOybu/BLYc9B9C4Ikg8MwgeNE3fTS+LF1g2w3LjpBqFcOP9oclXVoUCLX49vqCqPYJrGt2wwxdbJf8+N9KtT3FcIsiAGtvPS3ubN1kVvkkVWIk3wH3XxAjTx6S5rcztX4TZmjlh/1tHoBEZEgfdYnMO1A6ioQOuK1zU/+t6yk4fNlSfO0TX1TQPk9F7Ucs9OWtZeoGfb4v4uQSLZa4MHycyAJvAXGffoQY/YXmmtSHQU4af+lznCeDGKLgNFB3w+8fdyZDXRI2xfeN0lNCoOS1OZQTdLhzv8KJnB12pBBgJWK6K+VOmf170Z7SB+LFx4ZpMm7rL4LlNYu/XbQQY0dbEXjiwQiErfJSXGhtnTLH82ZThXzTiT7nfdWoagw3vJwYMOK84eXidL91oMQIUiflBFNCp+aitflto6W/vA3c46tLOWAZZvDBNxyIKNMjcG6H2U4LFEiuiM/YOJyk1zWCxojrbibg6/T75Ep1cbOEh7+9sGYcVBWk8g8pDg0whb3nyr2BNj9Zkc7rzWRYMcuPnkHjyzqRvPV1CdWus6f05YOqPJiBOkg57glcM/Eh9xgpp/P4tK9sygjCmPGAYiD4dCInnXwcZeYgI8dD0KNEtCx3pyBC7ej6SkgnrwT/UE7E3x60SvBWKINyOJpBNNwsWAGVNDQ0m/IvXDIc60WEBwgGMli6m4isNk4rFwgwZXsNS+rVcs67JklH6JU4ULgno6sSznRjOZv7cn7shMpUMf5bMxhALf+6j9MJvX3wOydgXZZo9nL6XO6ABvHRfGQqrtXbB8DmGVy2NFHFfX7WOp/cj0l+FGYm0gug624Vesbxbs6ugg4who8WvbGEVA2OSKjO3ueC8aKfyN3X2/XZzfZhO4XZUO8VNJuiMN2bfkyNY5ujAPq0ZwOk/BHX4fPz/oRdrjDvb5h0er7NHLfhL7g2pcjjXcqn2EdBczx+lm+kj7w/e3ZOCiGqL8i/Rc1E6cURtfm+vHAnjBHdIuPq1iGIm/zMpBrhJCO3WSxeNe9OgYLoWPBdDj4SbvzXK1gNYGuKtOGIa7RsfK0hwzeRyXHj2f4Vdm+VAgvGMWcLKKJKnwNuQU/qwrX/cPeCiXd7ZY1ituUwT56/8vgolZEJ5R2X3Y4s8oUYRpKKagE7cZo6MF8FbxitnwANRvB7pQY0H9nVs+724k+whJ7qrZmf8tRLM1h+Vch1RPtiVIKAAFo41qI2WFZ1cRN554nTSDJgAmmjEFX+3HLBoM+oVUrFoWXPnQwtPa8qi9nqOLWO/4+nRXpLFoIyUO+x4B48HIpgrSFu3kRgFcrlJAiiUq/1QgDIUZWLZ3kEXAFNxA64pyVvWC4e2erPaYAvTP6BRK85IGwtI5mP0FTF+21MQvZ4TiUopKKz9vPAdbcO7luOCcPP3k2p5xIpV7Kw3kfhlIWuj8Yd5oZ8Q7tErNPqS7aBR9s5vcm0Og6SQlVN8ZSQd5zaZ9UC/RgRHj4f2AmDdWWjA05D4Mg+Oos2dbe1iGXR9522YOTZHXRxsO9AsLLdWfuhRyXGYvB6NEik0/9MoMod18iVpcN9PS9dQ748Ykn5Ow4KpY5aShyprm3zqYnNl5oGFwGvVjLYw6HkaaJsy2bbUAxC0PkgIupXeCW6RgsuRIQCB3OqxowDD9Q9WbDFxutqBTA9Agm3VZ+W4XoGydSXZawYul+q/AY2sEwsOYomwCxUsxsHBJa0+UkDoRmSKArO6i9T7jkceCsvjGywhdpoCZa/10RNYTa5KtPenEnKtAZJZmg2pwqc4mHHL3Q2VCKczu9pu09oGl3aQo3YymnH8EdtqRg9YVALIzeP3vaNYJTIWgn8uFNCvKlDlopIlFjaACLMrr78kJwGCQUUp+R0gafKFN5Udn/QSHAkXqp8SQuY+T5CAn+sQWkXrZg7f7b6fsjuvlfNdZt++FeakYZp37Y8OoWmapiYmJu2yGlSzA/osL19Ngx9fR2OgyIFMQktxPY7y6zp/hb8Gb4TnAgT9eYi7qWGhPa0JqlCpeYe39TLB5328xk+PxBrClwN1vvp3t7Ta0MAuqvQwg0+eIN5S4PGhnMj3UzJR+fvtIf0zoK6YpfUBxxxlzZMzED5EmN5lapKv0ENIdsgBWwxjqP2+acIWn47s56lVTh71iPa7mwifowch27bQZu8mShO4+ujHtRIR+nvdTObY7pUtTeTrnlfmeeYMArttqRAQDdcachJUFLN00c5E/6taKBFRtYWHhFy32KGb/lgWUl9QO5qiB5tMYJjKRuXuyNtaAgAEXjDoCEjMAhhIviYkcrKeLd0E42+evnw4Vd0cWr2SO5jL3NePzSn4gA/v61VBGMzaXyANv9KKLHqNcgNY38YfG5VdvNoRDEOkU8Que0z27ZvOaygkw8UUFU5GxDVH3/LkUjqVFbW+i6BGlKrlkBFAL9+P13EZjn+F0jnLlII19VPl+lA57CVPzlAVQiq1do/hraZGing7S1xSohrMgfv9Q3bBzg7S3MKKT1Fb4SehWsv08rkBPpXUN9hlJBbwepReW6lM3q33uX4VI3hHeAhiqBG7Hayv5N7KtnvJklGpaxu9xYPf4guSN2pqppXYoEGR6cUZFaG+jlagO+set0SHLpDlXJPWMSS7mwIOH/tBbkXepoh8gOtHXcgjohx+FXUz7hxIDARLchlTKPKHeoGzzPSXdai8Te/wV4TTgz38bHE9RhJfkOZ4G04JiwtJFpSLkfjmeBGvyucsdVrRJJfuLW8Gbk31A+voL6CBlwjE4jDbO+0XzyejnddXizwR5H0MuVR/Pt0U/g3nWZzYjP6VRogIi/wp9L6euIwBUJP7ubAFDf/7+/nvqAlyiRKydDWgnps5+Q8ocBeIBc3HDgyjUcB65UUPS7wISex2aGac/GAdktsq9xl3MYJaMWjXzrdwQYwCRunsfnP/SLuSD1GNPpbut5y06sGj7/pVQGNW0A8XXLGBw67489dfrXi+QxU1gnkUnU+qZui2O0Lr/NroBJARfhpI331nl8Kef/euOl2WzsHNC488FHdKFd3F4yvWZgjRFKN7k0v9rp1gcqnTYXC1/CjKo9oD7601m0z3LWam/71wU2zbABZgNNBgLdvDulfyjUlI/f2IY3F/jac3Y602T8n/E1Y+/6yzO2SNelrK2u9ZZ/GJMwAgdPcv0cWe+ET7n39VJqmTFAwbVn8442qhcg3GZxarvv0eBpDcZ/Qzi85k/ojsn20fQxghPE1ZV2viclGW7MIeRse96igcr2QrgzS6PYtJ/pvAZ8vVktk/4TsCgIkWl/ArVNHkluuURuRN1tZBVleRtTaJ2EeABVu2vliLSbKXoAu3gOapve0TOhlOubxgpVtQrcqekIjdbAByLdA3yU5sjq8VhUvdkm4SqPUThbV0qLjtz2Pt5/A5JHgueP351FJ8oVL04L9mLl2ne79ly+52I9uvJW8DwWo6KBNTNYdWnb7xhkesvokD8f2GbiWPWHYVLJ0FudsJwjozMkJh+829hsbxbT7Lq159hB6wE9/2VELWT+1WxN4EDouLNTjFtK6p0NXX6nZN6bLlRG+YOnjjzvHiiILcoT6qphZhKOhFlmOmqY8IEFZgtjFAOvTkxyNjNdx0Qc1JdQ/FnIWW0h6Ra2yaNQcwkTxbMnvDqtqm+lcEKH3EGjkrNbdJ3+5eScwVhwzhkL7MlNxEQMFufCcuIZ4/8ntNfrtq5phGlYMaEEPdIFd6SFiI+F4Qu4u4ErDypk5iJDY8e2/gxhgfuyK1zbrs4YuwOFS0pE+2PIRDRXQPGjVHMOnT7Gj1QCPzWbrSSFH/lgrC/wGdiFyNZk+QgUcQjLnpGbBBJf1MkdlqjMw1XAQXNHynjFyBz+aszdWZQNfsPxVe7gZdLhZ2W/lOntdVhPXGrlakBjgXdrbnjLrq9ZML3j/mkl/nL58fyC2hL6lRUt1Madw1Z0huZb579yYkGxsFfsTm75GCarm7YDW5QEhadmqyet9KYlJiHYe+RDJYBayOZASuqYjZaevoDdmpDsuiZmkhWvRveUna6pggvqqJX5vMvVawhFCDLIAN8vBhQ0VZRYaN5VzsaaKnJhwrPeC1+CDVig1B10MurErpxJ24VSOZCNUc1Ic93jOd22vr3pVuhPY/DmOBEVgSY9p0BWHgwiZdewSPM+E44rMPM1ohStvAfPoM6DynmnalnG2GRqjxM+5eq/AAqQWyOsubo6vkFpC/gqjkhJPHHKZ7WhgAIKPOnoQiwCBhKlIEAItkVRzziFWUPr6SL5lZ9JXthiEcS0vzvpDgAEAz2rV+Mu8x+jdxBWmu3mepfPLtKG7GVuSc75D62CyrqhDpRHiCwdrl+NuBnxNZrI/kS3THUR7bOzhzynRMwzWp4akh4D0E46+SeuQ1k1F6I/uCKsNagKexsYD9mKNoA0aEVdEJFHX9vwG4Yof84uuWD3mV3WoXLgrrO+HjkOPEQhJEA8AQrabOEi0Zpmds9fMNFH3GUz5ly2qLoOc4vSzwkzBoAjMsmuCgEmGXIrFww8evjm3MOva872wYREefM2qALBU6rtugFbA9mLFlW1LFa6+GtP6U52HDKADrIvtM1brY8AUpniMSvVPSt0Q0W0pXZZov2iZ51t/cl0aa/zVhCjxxjSp92lbhP5XAccJO++SOv1f+P8b1ObXwfqmwXBQCKDWXcBs7ilz3UqIyYPOhrLfN2u15+tmAZOwEIpjZnHCN1+XCQw1hH/YyrmCzxhhWb3ADaLmfOxNWPR+1oxttwdqyRPo6xE0m12OYp9S65HEmvdBxoVq+qP8neACWaV0PADe6NBioftTOjpgMvgDKIoTcodOVJNptpn3RZjl+wCE68x3mv1tYwTTaNb9WfJCzlKwnAnYpPEfjXvXbjfxdVAkSRLnZJTUre0BVFgEMZHzuwWUiDHjx7Mg9eUED+R3SD4lpLqIVnCiZYIJRsPTXXipC9VYDQ/1URgyr+IwBeHwQyQnrc2AIosNTRuZOlr5qjtwcQiLPwenDqWcSo+IklRXy5++Bx2Ux0g+nRiE3CY5rRDBPvnJl9mTcPQdVwRWiHjehSMuI48YNkGfLH1B7K12Dj5Cf7opAgESCPWHKZ+atdBodO+GgAAcbfMapKPRNxlMRl8L+uesuiyKvRPZfDYwUivf6iEaoIrQoCylV+pFzERY1RSrgFUGSgRMBF+cPrgxTW60Z7UtD5/OzyXHf2dRxSyWnGoi3WiqVzQzvBETxJWMREnBQ1poMvg/crIIjL8VewmVowG7psBEY/ZFMfqjPyFVOZI6urjAZa3/ziXS/6aaQIbCzmf/TPbtvMMcOnmBAohTHcIWVYJ5CB40pJ5pmWv0Me3jRVKARqKHJEK4EcOFcgp3LlVC0rcna9dj25+qKYYHt5L6eNasn2AuxJFsBVJFnyBuhDQakppMjubUc8UbIimty/snnPFtMV29lNvMHX3ltCk+uvsnl2o3IYan18zVVqeVBHfonWzm40WzapTLhOYXWkgsBnTAXBOymdxm2vsEfQNuWcLb6XCWrgo5xr5XpvY1QGCJqbLDCGZD/T3BUcoIJMWa9yjAIKSo9PcpLNQf9c+GZmapHb9QH5rhW04LZjFv34vhYSAV5s0Pxn45BWCWSwd48T762wY4FJHuzx7YIGlpGsqkYQL9CwLoWU5sbBoqgZn8yn0odLOmkAUYd4Eyf5w+L9mQj9WTOoLGCNDIohqQwHvxUEs14ytiu8U913lDOoj6rS4l2/f9zDzmTNuphBJmVhKtrJ9mkkjquC4egNFVoaaYZEg5Y88at8WTmO1nCUPmbdqW5R5+1RZ7QrbmjY9d3L9MFiMccsssyB4WUgmN166ddrYduq44vO3IOjdD80ENVgUaCUchj4AVYlcGtSOT48KRknJy9wgId9Bmb2ejroz5T4hMR+gbFxan8V3MjXIvoz4AEvogTMgyZD29QKU7Fsc9YzbsiWkezkyBxm7iI6tHkkyyz0PCgRg2LYCnWXzCJ8/vc7MOwBvWqikzxcFga4Tfj1kXsbw7QJIAXa7qYet8EytAAAenJTMZPlc73H3tJh6NuKeNuEvqnqQ8feTwXOgKgZsNEtAwCKgh29kAH6e4LxjJKv7euYzvCmmMQItopJD9cQADZH5Sh29Gnkn8k5KV4bCEGWiaZ8/rl8AaTrDcTd49eGlcGmCctIfLxl117Clp/i/iu8InXMCzw7bfgRQuKF+wqsAvpL22pGFOAOg/6W7zwSD2zS3retEwQPvGRuKSBpffTsa1V9ZJycd74MrhBoiy8pFYt6WKJtFvbEPsELKOr61gtjuQtlAiOXS4jjG5EegaPHcV/f4Sjm2RDd6uVTKhY7wJGfbSXLisfR+X7AuJ42Rzo19Yxt1wloCEyAM7GflVH5+BAJZy1YJ4S6erYm+fwFvJjfx67zF6zfkzkweO7Ld39ATJ0EhtNoQwkLlYhSj6HCdIs7SYmR2pM6fOxndaidXQCvyyvtOIG4AUQrhSmZ31HwxwPI+NUDICmeRTEfyN96u5zZVaRM9bIKvMWrAVj5JTW5VUO6fpUTHm2dOn47SVRk74aOw3NCCIkFPpsZb8WUPnE14s5CDB7FTJEVkrAVeCbdlumY6Lgq87UhwC0DEpXNlMm0GGF1Fcl1K9psdkebW7o0oIDpVJ2lga5vAeZ+oM9EN0L+2xpa1o40nO2VNK3izbNgd8G1xZd3hPscXP50Ej/ER9R6bY9dW8Y8EjcHMQ64CkHiaL9ot578Ux7kPSIjcJFCRIMLB1V7cqXAgiZHr0x8S42qnp9UixB2ziEbVB8iEQgAAOzupT94YCSQ/bi8MKG4UcE/KRUReWA/rPTw2fKLfNYLzkDA/EfpAZiGqnSb7aFjtwFMcQXhwdyGjZ4Cf+FJALNZZlrnEGfJI84xASppyZQqBpaBFzPHvWfQRjBWWjg50QTi1LGnt0ovb3vHzdFD6ddtl81j09/3YH3PKtbHdF++yhrjT4rnXKP8yompFVtZ2kVsh2Qqdeuh8of/IyNu/7cpHfWQqRK9vzAMgX0nTx/FKbqBq58fvLM2cYCNMeqPyRFVA54/jXTfspz+V5iF1lGjTzap6CyGZg23SZ2LYTneNMjIurcyp4UUIoZTFsvtsazhGvYDhQ3wPNd74y44dPnSv9CM1gQGs7+MWPJLONhMxU8rES6glztmbaRbPrDcS0f8IEiKfdP890Eu7mebIOdra6KLbsOewpyg0wM+KN25XSB5kGuCXsgGV/GaTscGSAWVRKHvbGnfKDQZ+eEMt/fi6nDrmmxXE7VWox17Y9l5Ja1qBseq42LZiiNu1Dl9blkYV66SyUiNUpRb3lTHKwnG6kQ4vJUxAasog/j9KyWqKa3/UJ4RUxExST8F/rS6f0zXYYOzhwN5pw5MYyAs0fCrhzFDyjcRKKgIfa/UsR34AZA82c3qWQwIs/uInZWxjrESNhtRpKT4VHxAfDS/qxWAkdlUUIAD4JTCro518ZyX0VI26ZOC9mKJSiCDzIzrJG0ujo6VA8AAha2HRvl0maURkA5Dwz8YU3dckksfVgYCYEwPH5H2R4J9heWe/hQ7NESeJEjloGTP5rAnZBTkJa08Tb4ikETo/zcS6bsu7r6FYsWCKectD45F7RH4QdMfEJ2qQFNPQDs6BfEZAW7FUE/kPPs/1TZiwh1CAl0RDWVX8/E0f7CorT+BNTAIQZCh61c4I0w4YnSkjGoL5ZzEIEsr4inkmE3jmZ7JEsVNikyQyqM87jsI7PmbyxWyNyTcewHUsrLRfoKVqCjzeO+y4MA2e9zJK4hHpAxTETPZfKHocaR4B/8ANT33qPIj1+6CB41Uui574m13sCN6TYLSDNufHqmrEb9pD0mo16Fw9mfhcHSZehxfCJYDFH3wIzITNciNeAM0O28zpmcH3w+dLy0WQF+vVVpBMNrZRkcxjhdf8NfIL5JE3zWB2MCzbsSRm4LLfcwFQZxQPigg98vSKw8siPQYbq/Z/8uOP1qP+cBBSZFe7nhhCGCdu2KOGxu1SPbU5WuPoc7Y1AJccoyVE6UWd+C/EI0YF0Nlgwd9lK4S8xOK/z7w9CvmtcJOU7Pr99HyuOVma5Blyqf2LxeIx+vLAL1549uWWGtdUIqNSGd6cODSO2xkWV6e/Gu7Kw3alkJ/Q+U2v517JbAQuvGZUdJFi0AkusuP+DuT54umhUyZwDXzh9exbyenY7ov2YECMABBDKjSsWZ4v/EEMp3tjOMedTHv4G/efyoibSGWUbPh5qtjE0Lmb9J4tW3dpyK8vM4Sj2tWAAnUbrBMpSOhIHu38J8Cxeq1Apm35KwBfhgjzXZOJayf6vwOZSAzjCj2tbH7vryRDCXGTs81XfMJc3reb7XGcubYZtSncucG1iwiAb6aD+sDGMYmPG7bonBBZaLZeJafPvsKIikpEHTxFnuGz8S6dXzB6OD+RrgwEjsx8Kkz6QLDDfTOZlVQZXnK/Ox+Qf4vwelFhT/Yacb2LuXQnLWoTM8K9SsWz53Yqr6VKadIgrrr9a89tSP31QVxSVPRgEPO7t6Zz5sYXocw8BaubxhbvufC4cMYbuehXe9rlefpQuetz7EVhJMAfNwEd1XaY16+tICai3/Vnr3ad5ilqaBA9Ng/u7hcQR2OyL1sLPM7V19nT0Gf2Sz77gnfH5T+x/UoT6AV5/AwfnuNmJHffu4Mqdvg95/RfohP/A9U1qhTbYghTjR5txyIsoitvB1An8GYvacVQfqibWdenwicJViZTyF30diFPhdjiSJXSxG9qSZOUMM4ej3tsTd8fGaOzstUitIvQfawOb2jtthmi/W4C8aIXsW2qawRBfvxXCffKuP5aWEoUAIC7xgeZVszxXze4zSCKhK7Jyb3JQsJJqfZqgXGWjRndSzWkEZ8Q7NXQTQx346NCqvCUe9MTM0wokB07tBZmP4uaAlv9jqO9S7pX0ruST/UjJMtUBAJicE9g2vRkDo5eSj6+sWq47H6CqHQe0gxPLhuYvKvbzpoaxDqKpyh0woKBes+MlPMbC49Q4NljqgyaOTGZzS2tW3LRuht32tXTEY1ZSN3RlwUZQGwg9tuszUIVS/aHBnK5w+3O0mfMPuHvLFezFCaNpenVbu7YB83qdfRMNLaLF16SuhsHysy4OGyLIboS//wsMg2/8Q5Nq/PABEFFjpTJbOwZBJU6kBKoGYyYUWkXOuHGpMfbJsHK9C3nnMDHlXy4u5dM0xlYRaFLftUcuT0nFbXCJ5KgsV1sbu0Tq0WbeO8punr+nPhfZy/drhi7MoWttT6BR+Pxocb/LTSUL9fd8pqms/XXxogyH/UZ0tYbXOnk5poBrBGPZDc9RB/vM9zuXy57ukv8SppxgTCA0snJCGmBwXmgBUPYvw89Fnrs1Gz4CAgiBUR/77qsG1AJ8PlaYBRaYO3iv3xaZfF9qrl1SxyCgJOp8/Pw40Q7Lf+9I5VbPBRydHO4yiL2Uq6AfbtodI6FMc8D6QoXT+34Yb2iiYUjF20y0tj6W5PvczZ1om7ZyUfEqYPJoe04BUpRUQnUE/uboWOCJ9AAMeSxnMIY+LJ1rsA9/OltXcgI0kw63z7r8SGtfdj/n+7oEiJJuBBC904sa502D5Yyvc/ilnGkSwHVQRT5LSFYaH7j4OCrDmHTRu/14UxlEVRfDNdNDJrAfFqO5dsI4UahCy5SSt2Xt4SXWY2YGhtWW9XESqucj1JIeRGHTrLpSaBCWuLTnSWCrUEaPbTvDoJECCTtHZkKinaynYIsYlZ3gCEs07fG19ZAuTqF2p30L7a8zV72XkdLQmOQSXF/wBu4ivkgO/O32InaIDid5zJ0KBJKH9jq2TfYinb649jziFJAb0/wZTl3MII1A2dmLd7gKYMS/XwAPt6ccgS/H7wGe3BDVFFJCfyWf4E8RhZL5CtqzuWCDyy6sDzn8HOWiabNa806L8IMHNlbDecl0G3N4S4uQrosxeR5A7KWJA4repOxI8cSyMcJefK8Yk1pI3o6tvDxO9p7d/PTAGC1q6gLyegLQ8tmbV44PYvtYiWDVd6Fk7WauAnncRLKYiqjf0nQ5ZkSWp/tGMoSQwxkIkOoUUsVZregED/EUKiah4MkiRWWIk5oFl9xn/7WxqXTkgvN0z5aXo+WbH8c59swEqOCkIIy8sl544ILVWpmMHuM7agNf1h+FIqw4o9AwFwhdAE4+ZEmGZY/vNW8+qT6+vJuCCbfsVRN3/RyXstgCohjw14+8QYy7RqGGPfN1gL858ab9Bzt3t5Tuwc4XN712JK2LhLzzkH2nsdVRu1JNT5cNnRFlssQXpSco5E/Wv7FBlBtQ/ezU9KtmD+QSmCFrkiuuuIFKNsk4bRHG4sKH0kT2zeCYeX46bEKVgUlmUyeRrsX8zoKIovJhs/viSW96nDCh27ayzT2eduQAJ2ZLPiJdP+Jo6UjdrjYwpvfkHw0JScg1j/zLgbhhW0+haAGqZoaqFM0VgmrxHIPjDdiDQKpE6hfJ6FK4w7qEd7g+gyMpBTBTFjmc1B8P7ShClQgB6dC41jh54LpYF0XpGRB0//6qJBIcMKlbPwFh07ryEnbntPuzvrChnWxmkaFDGQreEZCCrH5Q/stN63nvxQKD+fWGyBpSDjHzpB0STGPneZjdBUtJIW8bL00ud6/ImTxsGEjPXcpvWK+sAvSWbrFU9lDGO738OQBqXQUg/r7AK6zaZFABRsyqKznzMaWTGKhfb0HpjiZJinnDsj6A3hfMF+yR+7Zn9RTol2+PTvdR1v2nubS7N7CK7qd/f5zeUt2Oi5esegULIep3Yl4ANgWFsWZicuKL66A4pglhDBzxN+YjQYN7MAa0IHKJGvWJLLW+WYvx/5wIDqj3niZVwOKi1TgSgLowXwLpmzkfwud//XDI9LeYaaTbeTKB+LFp2fsbfWe+R2Vb9CLrRs320+B0ueztNJUqpqovFAEunpkQNAmZmILlWt6ws5bZIdHDbhocwqQqmHiuqsF4/C6rU1nbaEgA3XEUexuS54z0mA7AANrrUrEuqsD6IEO6855q3/BRh0tobDGv+o9XwroYsrzRQaz41/bBHT+Gw6tX0TBPcdWkcI5Ip3DpRd2Fcs0+U9UavAmrlpFYWEI13KRvx8Co/cTig2QbDEX1K3ffq0CCAgSiQB/CBXHLLMKTtMBtQBHQee49OoscbYXF6MU4I6op5DYq3Q0Ph/Me5Uh0Zb8lxB2ixP3E/8qAWoXMvlcUDadEG+ALpQUBvtFPwcl4zarx0ViIAiM/N/eET2dXgGjJ3uyGUNMRiierazjaLGlVU+XZIYUDBDYX3wFhZbvA5Ufai5FDyzOanUCnX5iPqcDuzjldmb/KVMqqkq3W/9RAfRh6WS/LqtGWBUh8Khr74yfqfLTDKZAC/JNfI0U2/paOXxXcntGz+DojpWXF64ukr5bPLlM8+Ca68aztS50+xMx2fD8mYyqAxnH1zCfamOOHOvJp1Bnbc26Z06AXqczIbOQM9Rm+KnsVLNHKqBGBr7ZkUlEK3NbxUJsiv1hEngzPoUY2GX0dPX/HNZJJqurvnWlD+RVy9i2Apwky0+nyZOwqjhAVw0Go0zOpOGl14cYvo6gswTbD8uJ4LkAAAxbo6+Hlusq3qsMMdelPhHE2YwqGu+rPsUVVqddtK1FvLQ1xXypQE2tsIG8ToO0v/2btoXUk2r9tU0KSNcgKeM0DgjRLd76Tgc2ghwOVkY3eum9H+efJgx3S7c7AEAAPqsSz3anx6bMta+vTSyKu1a4bqAZ4zbc9FD1kn+T4Cd8AIcm6grbi97k+1jSAKm3bmqEWqbc6OiVnhn0LJg0dY9itsNzTm1xzwXILw/dflCW0nKdibQn5G9h2IcpwEHYuAxh8cRZmydxIMNAA6pkkvS2KTRKH/k4snxtVoFhYl4Gx4Wntsd74ki8FN7vBqIvQaCRuvhqGdYACyDn3AbftMhjyPESUjihmvZcwCSjO1ueASOZtsi6gpmqJUEiuKgGpIQONGpp9E7Ed8mx67rWqSG19zLBjiuibwQe/n0gfoqGs+2JrdPQWK/KPvPE4Ee0yzK0nmtEj8dcu2v1Ini3fdJS1e1KKafDqt190ePTkTaqKgAr/O6Bm4lR+CutYYL2oTraXadgP4ViYhwVcb2gABdBaHImKIAAAUEgpAqQNGwAVamqaCRuX+At9BUEpFN4GzzCl4ZuAn0befZl/mvmIa9nMtydjlLDZ2fMqmjsMzdn7vuyM1nVe98F3EfrrSY8AAAAAABLT8Y+thT7MD4YuAAAAAAAAAAAAAAAAAAAAAAAA;container=0;" vertex="1" parent="VasatJ0gpRPYXc5Js9zP-44">
          <mxGeometry x="1" y="251" width="1080" height="1080" as="geometry" />
        </mxCell>
        <mxCell id="VasatJ0gpRPYXc5Js9zP-2" value="" style="rounded=0;whiteSpace=wrap;html=1;strokeColor=none;fillColor=light-dark(#949494, #ededed);container=0;" vertex="1" parent="VasatJ0gpRPYXc5Js9zP-44">
          <mxGeometry x="421" y="392" width="145" height="120" as="geometry" />
        </mxCell>
        <mxCell id="VasatJ0gpRPYXc5Js9zP-3" value="" style="shape=cross;whiteSpace=wrap;html=1;rotation=45;fillColor=#f8cecc;strokeColor=#b85450;container=0;" vertex="1" parent="VasatJ0gpRPYXc5Js9zP-44">
          <mxGeometry x="453.5" y="412" width="80" height="80" as="geometry" />
        </mxCell>
        <mxCell id="VasatJ0gpRPYXc5Js9zP-6" value="" style="ellipse;whiteSpace=wrap;html=1;aspect=fixed;strokeColor=none;fillColor=light-dark(#a89d81, #ededed);container=0;" vertex="1" parent="VasatJ0gpRPYXc5Js9zP-44">
          <mxGeometry x="756" y="991" width="80" height="80" as="geometry" />
        </mxCell>
        <mxCell id="VasatJ0gpRPYXc5Js9zP-7" value="" style="rounded=0;whiteSpace=wrap;html=1;strokeColor=none;fillColor=light-dark(#333333, #ededed);container=0;" vertex="1" parent="VasatJ0gpRPYXc5Js9zP-44">
          <mxGeometry x="526" y="990" width="184" height="45" as="geometry" />
        </mxCell>
        <mxCell id="VasatJ0gpRPYXc5Js9zP-16" value="" style="rounded=0;whiteSpace=wrap;html=1;strokeColor=none;fillColor=light-dark(#949494, #ededed);container=0;" vertex="1" parent="VasatJ0gpRPYXc5Js9zP-44">
          <mxGeometry x="109.5" y="801" width="51.5" height="80" as="geometry" />
        </mxCell>
        <mxCell id="VasatJ0gpRPYXc5Js9zP-10" value="P2" style="text;html=1;align=center;verticalAlign=middle;whiteSpace=wrap;rounded=0;fontSize=75;fontColor=#FFFFFF;container=0;" vertex="1" parent="VasatJ0gpRPYXc5Js9zP-44">
          <mxGeometry x="101" y="819" width="140" height="50" as="geometry" />
        </mxCell>
        <mxCell id="VasatJ0gpRPYXc5Js9zP-17" value="" style="rounded=0;whiteSpace=wrap;html=1;strokeColor=none;fillColor=light-dark(#949494, #ededed);container=0;" vertex="1" parent="VasatJ0gpRPYXc5Js9zP-44">
          <mxGeometry x="336" y="1051" width="55" height="90" as="geometry" />
        </mxCell>
        <mxCell id="VasatJ0gpRPYXc5Js9zP-11" value="P1" style="text;html=1;align=center;verticalAlign=middle;whiteSpace=wrap;rounded=0;fontSize=75;fontColor=#FFFFFF;container=0;" vertex="1" parent="VasatJ0gpRPYXc5Js9zP-44">
          <mxGeometry x="346" y="1071" width="60" height="50" as="geometry" />
        </mxCell>
        <mxCell id="VasatJ0gpRPYXc5Js9zP-39" value="&lt;font&gt;Kersen&lt;br&gt;&lt;/font&gt;&lt;span style=&quot;background-color: transparent; color: light-dark(rgb(255, 255, 255), rgb(18, 18, 18));&quot;&gt;Tuin&lt;/span&gt;" style="rounded=1;whiteSpace=wrap;html=1;fillColor=#d80073;fontColor=#ffffff;strokeColor=#A50040;fontSize=15;rotation=347;spacing=2;container=0;" vertex="1" parent="VasatJ0gpRPYXc5Js9zP-44">
          <mxGeometry x="812" y="1122" width="51" height="71" as="geometry" />
        </mxCell>
        <mxCell id="VasatJ0gpRPYXc5Js9zP-41" value="Manege" style="rounded=1;whiteSpace=wrap;html=1;fillColor=#60a917;fontColor=#ffffff;strokeColor=#2D7600;fontSize=15;rotation=349;spacing=2;container=0;" vertex="1" parent="VasatJ0gpRPYXc5Js9zP-44">
          <mxGeometry x="531.33" y="969.19" width="181.63" height="74.94" as="geometry" />
        </mxCell>
        <mxCell id="VasatJ0gpRPYXc5Js9zP-40" value="Graan&lt;div&gt;Schuur&lt;/div&gt;" style="rounded=1;whiteSpace=wrap;html=1;fillColor=#0050ef;fontColor=#ffffff;strokeColor=#001DBC;fontSize=15;rotation=349;spacing=2;container=0;" vertex="1" parent="VasatJ0gpRPYXc5Js9zP-44">
          <mxGeometry x="513.95" y="986.62" width="67.89" height="46" as="geometry" />
        </mxCell>
        <mxCell id="VasatJ0gpRPYXc5Js9zP-42" value="Bushalte" style="rounded=1;whiteSpace=wrap;html=1;fillColor=light-dark(#919593, #6db2ff);fontColor=#ffffff;strokeColor=none;fontSize=15;rotation=0;spacing=2;container=0;" vertex="1" parent="VasatJ0gpRPYXc5Js9zP-44">
          <mxGeometry x="486" y="619" width="67.89" height="91" as="geometry" />
        </mxCell>
        <mxCell id="VasatJ0gpRPYXc5Js9zP-43" value="Aanvang" style="shape=singleArrow;whiteSpace=wrap;html=1;flipV=1;flipH=1;fillColor=#6a00ff;fontColor=#ffffff;strokeColor=none;arrowWidth=0.5654834761321925;arrowSize=0.4284210526315803;fontSize=30;align=center;" vertex="1" parent="VasatJ0gpRPYXc5Js9zP-44">
          <mxGeometry x="787" y="154" width="240" height="86" as="geometry" />
        </mxCell>
        <mxCell id="VasatJ0gpRPYXc5Js9zP-45" value="" style="ellipse;whiteSpace=wrap;html=1;aspect=fixed;strokeColor=none;gradientColor=light-dark(#0050ef, #ededed);fillColor=light-dark(#61a916, #ededed);" vertex="1" parent="VasatJ0gpRPYXc5Js9zP-44">
          <mxGeometry x="571" y="1064" width="29" height="29" as="geometry" />
        </mxCell>
        <mxCell id="VasatJ0gpRPYXc5Js9zP-46" value="" style="ellipse;whiteSpace=wrap;html=1;aspect=fixed;strokeColor=none;gradientColor=none;fillColor=light-dark(#d80173, #ededed);" vertex="1" parent="VasatJ0gpRPYXc5Js9zP-44">
          <mxGeometry x="689" y="1206" width="29" height="29" as="geometry" />
        </mxCell>
        <mxCell id="VasatJ0gpRPYXc5Js9zP-47" value="" style="ellipse;whiteSpace=wrap;html=1;aspect=fixed;strokeColor=none;gradientColor=none;fillColor=light-dark(#6a00ff, #ededed);" vertex="1" parent="VasatJ0gpRPYXc5Js9zP-44">
          <mxGeometry x="735" y="182.5" width="29" height="29" as="geometry" />
        </mxCell>
        <mxCell id="VasatJ0gpRPYXc5Js9zP-48" value="" style="rounded=0;whiteSpace=wrap;html=1;strokeColor=none;fillColor=light-dark(#a89d81, #ededed);rotation=349;" vertex="1" parent="VasatJ0gpRPYXc5Js9zP-44">
          <mxGeometry x="657" y="1037" width="120" height="19" as="geometry" />
        </mxCell>
      </root>
    </mxGraphModel>
  </diagram>
</mxfile>
